<svg id="Layer_1" data-name="Layer 1" xmlns="http://www.w3.org/2000/svg" viewBox="0 0 8 8.39"><defs><style>.cls-1{font-size:4px;fill:#29a649;}.cls-1,.cls-2{font-family:CenturyGothic-Bold, Century Gothic;font-weight:700;}.cls-2{font-size:6px;fill:#231f20;}.cls-3{fill:none;stroke:#686868;stroke-miterlimit:10;stroke-width:0.25px;}.cls-4{fill:#3f66b0;}</style></defs><text class="cls-1" transform="translate(5.13 7.17)">+</text><text class="cls-2" transform="translate(2.83 5.65)">i</text><circle class="cls-3" cx="6.27" cy="5.75" r="1.61"/><path class="cls-4" d="M6.34,7.8a3.07,3.07,0,0,1-1,.17A3.23,3.23,0,1,1,8.6,4.74a3,3,0,0,1,0,.31A1.75,1.75,0,0,1,9,5.34a3.93,3.93,0,0,0,.06-.6A3.73,3.73,0,1,0,5.38,8.47,3.61,3.61,0,0,0,6.73,8.2,1.65,1.65,0,0,1,6.34,7.8Z" transform="translate(-1.65 -1.02)"/></svg>