<svg id="Layer_1" data-name="Layer 1" xmlns="http://www.w3.org/2000/svg" viewBox="0 0 8.58 10.71"><defs><style>.cls-1{fill:#6d6d6d;}.cls-2{fill:#231f20;}.cls-3{font-size:4px;fill:#00a651;font-family:CenturyGothic-Bold, Century Gothic;font-weight:700;}.cls-4{fill:none;stroke:#808285;stroke-width:0.25px;}.cls-4,.cls-5{stroke-miterlimit:10;}.cls-5{fill:#9f9e9f;stroke:#231f20;stroke-width:0.5px;}</style></defs><path class="cls-1" d="M6,2.35V.41H3.51a2,2,0,0,0-2,2V8.48a.7.7,0,0,0,.7.7H6.51A1.86,1.86,0,0,1,8.2,6.54h.13V2.35Z" transform="translate(-1.45 -0.33)"/><path class="cls-2" d="M2.5,9.17A.55.55,0,0,1,2,8.62V2A1.12,1.12,0,0,1,3.07.83H5.78l0,0a.43.43,0,0,1,0-.45H3.07A1.62,1.62,0,0,0,1.45,2V8.62A1.06,1.06,0,0,0,2.5,9.67H6.8a2.29,2.29,0,0,1-.3-.5Z" transform="translate(-1.45 -0.33)"/><text class="cls-3" transform="translate(5.64 9.49)">+</text><circle class="cls-4" cx="6.84" cy="8.13" r="1.61"/><path class="cls-2" d="M8.76,2.73l-.43,0V6.54a1.64,1.64,0,0,1,.5.08V2.72Z" transform="translate(-1.45 -0.33)"/><path class="cls-5" d="M8.37,2.93l-2.18.23a.43.43,0,0,1-.47-.39L5.51.85A.19.19,0,0,1,5.8.62l2.7,2A.19.19,0,0,1,8.37,2.93Z" transform="translate(-1.45 -0.33)"/></svg>