<svg id="Layer_1" data-name="Layer 1" xmlns="http://www.w3.org/2000/svg" viewBox="0 0 7.98 8.51"><defs><style>.cls-1,.cls-2,.cls-3{fill:#1c75bc;stroke-linecap:round;stroke-miterlimit:10;}.cls-1,.cls-3{stroke:#231f20;}.cls-1,.cls-2{stroke-width:0.25px;}.cls-2{stroke:#020202;}.cls-3{stroke-width:0.15px;}.cls-4{fill:#fff;}.cls-5{font-size:4px;fill:#fff200;font-family:ArialRoundedMTBold, Arial Rounded MT Bold;}</style></defs><path class="cls-1" d="M6,4.86l.12-1.67c0-.41-.65-.52-.78-.12L4.81,4.68,6,4.86Z" transform="translate(-0.77 0.82)"/><path class="cls-2" d="M7.9,4.72H4.82c-.09,0-.14.13-.14.23l0,2.17a.18.18,0,0,0,.17.17l2.09,0c.1,0,.32-.11.32-.2l.83-2.24A.16.16,0,0,0,7.9,4.72Z" transform="translate(-0.77 0.82)"/><rect class="cls-3" x="2.18" y="5.44" width="1.02" height="2.99" rx="0.15"/><circle class="cls-4" cx="2.7" cy="7.92" r="0.11"/><text class="cls-5" transform="translate(0 5.44)">+</text><text class="cls-5" transform="translate(2.46 3.46)">+</text><text class="cls-5" transform="translate(5.65 5.03)">+</text></svg>