<svg id="Layer_1" data-name="Layer 1" xmlns="http://www.w3.org/2000/svg" viewBox="0 0 9.06 8.82"><defs><style>.cls-1{fill:#b0aeae;}.cls-2{fill:#ed1c24;stroke:#b11f24;stroke-width:0.25px;}.cls-2,.cls-3,.cls-4{stroke-miterlimit:10;}.cls-3,.cls-4{fill:none;stroke-linecap:round;}.cls-3{stroke:#fff;}.cls-4{stroke:#231f20;stroke-width:0.75px;}</style></defs><path class="cls-1" d="M8.52,9.06h-7A1.05,1.05,0,0,1,.48,8V2.7a1.05,1.05,0,0,1,1-1.1h7a1.05,1.05,0,0,1,1,1.1V8A1.05,1.05,0,0,1,8.52,9.06Zm-7-6.91A.53.53,0,0,0,1,2.7V8a.54.54,0,0,0,.5.56h7A.54.54,0,0,0,9,8V2.7a.53.53,0,0,0-.5-.55Z" transform="translate(-0.47 -0.24)"/><path class="cls-2" d="M1,1.44H8a.92.92,0,0,1,.92.92v.93a0,0,0,0,1,0,0H.13a0,0,0,0,1,0,0V2.36A.92.92,0,0,1,1,1.44Z"/><line class="cls-3" x1="7.16" y1="0.73" x2="7.16" y2="1.79"/><line class="cls-4" x1="7.16" y1="0.38" x2="7.16" y2="1.79"/><line class="cls-3" x1="2.2" y1="0.73" x2="2.2" y2="1.79"/><line class="cls-4" x1="2.2" y1="0.38" x2="2.2" y2="1.79"/><rect class="cls-4" x="1.25" y="4.16" width="0.07" height="0.07"/><rect class="cls-4" x="4.86" y="4.16" width="0.07" height="0.07"/><rect class="cls-4" x="3.96" y="4.16" width="0.07" height="0.07"/><rect class="cls-4" x="3.06" y="4.17" width="0.07" height="0.07"/><rect class="cls-4" x="2.15" y="4.17" width="0.07" height="0.07"/><rect class="cls-4" x="5.77" y="4.17" width="0.07" height="0.07"/><rect class="cls-4" x="7.57" y="4.18" width="0.07" height="0.07"/><rect class="cls-4" x="6.67" y="4.18" width="0.07" height="0.07"/><rect class="cls-4" x="1.25" y="5.3" width="0.07" height="0.07"/><rect class="cls-4" x="4.86" y="5.3" width="0.07" height="0.07"/><rect class="cls-4" x="3.96" y="5.3" width="0.07" height="0.07"/><rect class="cls-4" x="3.06" y="5.31" width="0.07" height="0.07"/><rect class="cls-4" x="2.15" y="5.31" width="0.07" height="0.07"/><rect class="cls-4" x="5.77" y="5.31" width="0.07" height="0.07"/><rect class="cls-4" x="6.67" y="5.32" width="0.07" height="0.07"/><rect class="cls-4" x="1.24" y="6.46" width="0.07" height="0.07"/><rect class="cls-4" x="4.85" y="6.46" width="0.07" height="0.07"/><rect class="cls-4" x="3.95" y="6.47" width="0.07" height="0.07"/><rect class="cls-4" x="3.04" y="6.47" width="0.07" height="0.07"/><rect class="cls-4" x="2.14" y="6.47" width="0.07" height="0.07"/><rect class="cls-4" x="1.24" y="7.54" width="0.07" height="0.07"/><rect class="cls-4" x="4.85" y="7.54" width="0.07" height="0.07"/><rect class="cls-4" x="3.95" y="7.54" width="0.07" height="0.07"/><rect class="cls-4" x="3.04" y="7.55" width="0.07" height="0.07"/><rect class="cls-4" x="2.14" y="7.55" width="0.07" height="0.07"/><rect class="cls-4" x="5.77" y="6.47" width="0.07" height="0.07"/><rect class="cls-4" x="7.57" y="5.31" width="0.07" height="0.07"/></svg>