<?xml version="1.0" encoding="utf-8"?>
<!-- Generator: Adobe Illustrator 26.0.1, SVG Export Plug-In . SVG Version: 6.00 Build 0)  -->
<svg version="1.1" id="Layer_1" xmlns="http://www.w3.org/2000/svg" xmlns:xlink="http://www.w3.org/1999/xlink" x="0px" y="0px"
	 viewBox="0 0 24 24" style="enable-background:new 0 0 24 24;" xml:space="preserve">
<style type="text/css">
	.st0{stroke:#FFFFFF;stroke-width:0.02;stroke-miterlimit:10;}
	.st1{fill:#050606;stroke:#FFFFFF;stroke-width:0.02;stroke-miterlimit:10;}
	.st2{fill:#050606;stroke:#FFFFFF;stroke-width:0.25;stroke-miterlimit:10;}
	.st3{fill:none;stroke:#000000;stroke-width:0.2;stroke-miterlimit:10;}
</style>
<g>
	<path class="st0" d="M9.14,7.01c0.05,0,0.11,0.01,0.16,0.01c-0.1-0.55-0.3-1.05-0.58-1.51C8.7,5.54,8.68,5.56,8.66,5.58
		C8.27,5.98,7.66,6,7.3,5.65C6.94,5.29,6.97,4.68,7.36,4.29C7.4,4.25,7.45,4.21,7.49,4.18C7.05,3.86,6.54,3.62,6,3.49
		c0,0.04,0.01,0.08,0.01,0.12c0,0.55-0.41,1-0.92,1s-0.92-0.45-0.92-1c0-0.06,0.01-0.12,0.02-0.18c-0.55,0.1-1.07,0.3-1.53,0.59
		C2.7,4.04,2.72,4.06,2.75,4.09c0.39,0.39,0.42,1,0.06,1.36C2.45,5.81,1.84,5.78,1.45,5.39C1.42,5.35,1.39,5.32,1.36,5.28
		c-0.3,0.44-0.53,0.93-0.67,1.47c0.03,0,0.05-0.01,0.08-0.01c0.55,0,1,0.41,1,0.92c0,0.51-0.45,0.92-1,0.92
		c-0.06,0-0.13-0.01-0.19-0.02c0.08,0.58,0.26,1.12,0.53,1.61C1.16,10.1,1.2,10.05,1.25,10c0.39-0.39,1-0.42,1.36-0.06
		c0.36,0.36,0.33,0.97-0.06,1.36c-0.09,0.09-0.19,0.16-0.29,0.21c0.5,0.4,1.08,0.69,1.71,0.84C3.92,12.23,3.9,12.1,3.9,11.97
		c0-0.55,0.41-1,0.92-1s0.92,0.45,0.92,1c0,0.15-0.03,0.3-0.09,0.43c0.65-0.1,1.26-0.35,1.78-0.72c-0.09-0.05-0.18-0.11-0.26-0.19
		c-0.39-0.39-0.42-1-0.06-1.36C7.46,9.78,8.07,9.8,8.46,10.2c0.07,0.07,0.13,0.15,0.17,0.24c0.31-0.48,0.53-1.02,0.65-1.6
		c-0.05,0.01-0.1,0.01-0.15,0.01c-0.55,0-1-0.41-1-0.92S8.58,7.01,9.14,7.01z M4.96,10.4c-1.4,0-2.53-1.17-2.53-2.61
		c0-1.44,1.13-2.61,2.53-2.61s2.53,1.17,2.53,2.61C7.49,9.23,6.36,10.4,4.96,10.4z"/>
</g>
<g>
	<polygon class="st1" points="7.52,13.76 4.74,12.16 4.71,8.93 7.46,7.3 10.24,8.89 10.27,12.12 	"/>
	<polyline class="st2" points="4.71,8.93 7.52,10.53 10.24,8.89 	"/>
	<line class="st2" x1="7.52" y1="13.76" x2="7.52" y2="10.53"/>
</g>
<path class="st3" d="M5.83,1.36"/>
<path class="st3" d="M4.52,1.52"/>
<polygon points="6.51,1.36 6.51,5.38 6.76,5.38 6.76,1.62 21.17,1.62 21.17,20.83 6.76,20.83 6.76,11.22 6.51,11.22 6.51,21.09 
	21.42,21.09 21.42,1.36 "/>
<rect x="9.29" y="3.39" class="st1" width="10.58" height="0.57"/>
<rect x="10.24" y="10.65" class="st1" width="9.63" height="0.57"/>
<rect x="9.91" y="8.31" class="st1" width="9.96" height="0.57"/>
<rect x="9.29" y="5.76" class="st1" width="10.58" height="0.57"/>
<rect x="9.29" y="13.18" class="st1" width="10.58" height="0.72"/>
<rect x="9.29" y="15.9" class="st1" width="10.58" height="0.57"/>
<rect x="9.29" y="18.55" class="st1" width="10.58" height="0.57"/>
</svg>
