<svg id="Layer_1" data-name="Layer 1" xmlns="http://www.w3.org/2000/svg" viewBox="0 0 4.01 5.96"><defs><style>.cls-1{fill:#ed1c24;}.cls-2{fill:#9b1c20;stroke:#ed1c24;stroke-linecap:round;stroke-miterlimit:10;stroke-width:0.25px;}.cls-3{fill:#231f20;}</style></defs><path class="cls-1" d="M6.59,4.93S5.11,7.48,5.08,7.46L3.59,4.93a1.74,1.74,0,1,1,3,0Z" transform="translate(-3.08 -2.29)"/><circle class="cls-2" cx="2" cy="1.86" r="0.85"/><path class="cls-3" d="M5.87,6.33v.2c.61.13,1,.41,1,.72s-.83.81-1.81.81-1.82-.37-1.82-.81.44-.59,1.05-.73V6.33c-.73.15-1.24.5-1.24.92s.88,1,2,1,2-.44,2-1S6.6,6.48,5.87,6.33Z" transform="translate(-3.08 -2.29)"/></svg>