<svg id="Layer_1" data-name="Layer 1" xmlns="http://www.w3.org/2000/svg" viewBox="0 0 8.16 8.15"><defs><style>.cls-1{fill:#1c75bc;stroke:#1c75bc;stroke-width:0.1px;}.cls-1,.cls-2{stroke-miterlimit:10;}.cls-2{fill:#ffc410;stroke:#fff200;stroke-width:0.05px;}.cls-3{fill:#231f20;}</style></defs><path class="cls-1" d="M9.07,8.5a3.71,3.71,0,0,0,0-.48A4,4,0,0,0,1.06,8a3.71,3.71,0,0,0,.05.48Z" transform="translate(-1.01 -0.4)"/><circle class="cls-2" cx="4.08" cy="2.35" r="2.32"/><path class="cls-3" d="M8.12,2.94s0-.08,0-.14a1.1,1.1,0,0,1,0-.18.6.6,0,0,1,0-.24,1.43,1.43,0,0,1,.14-.2A1,1,0,0,1,8.43,2c.07-.06.12-.12.18-.18a.8.8,0,0,0,.13-.19.4.4,0,0,0,.06-.22.47.47,0,0,0,0-.17.38.38,0,0,0-.11-.14A.39.39,0,0,0,8.49,1a.52.52,0,0,0-.18,0,.8.8,0,0,0-.62.28V.91a1.21,1.21,0,0,1,.67-.2,1,1,0,0,1,.3,0,1.15,1.15,0,0,1,.25.12.63.63,0,0,1,.22.5.64.64,0,0,1-.05.28,1,1,0,0,1-.14.22,1.07,1.07,0,0,1-.18.19l-.18.18-.14.18a.46.46,0,0,0,0,.21,1.1,1.1,0,0,0,0,.18s0,.09.05.13Zm.19.88a.28.28,0,0,1-.17-.07.25.25,0,0,1-.06-.17.23.23,0,0,1,.06-.16.23.23,0,0,1,.17-.07.24.24,0,0,1,.23.23.22.22,0,0,1-.07.17A.24.24,0,0,1,8.31,3.82Z" transform="translate(-1.01 -0.4)"/></svg>