<svg id="Layer_1" data-name="Layer 1" xmlns="http://www.w3.org/2000/svg" viewBox="0 0 7.69 7.95"><defs><style>.cls-1{fill:none;stroke:#9b754b;stroke-linecap:round;}.cls-1,.cls-2{stroke-miterlimit:10;}.cls-2{fill:#18a5d6;stroke:#848484;stroke-width:0.25px;}.cls-3{fill:#231f20;}</style></defs><line class="cls-1" x1="5.19" y1="5.45" x2="7.19" y2="7.45"/><circle class="cls-2" cx="3.09" cy="3.09" r="2.96"/><path class="cls-3" d="M3,4s0-.09,0-.15a1.1,1.1,0,0,1,0-.18A.51.51,0,0,1,3,3.37a.77.77,0,0,1,.14-.21A1.07,1.07,0,0,1,3.28,3l.18-.18a1.21,1.21,0,0,0,.14-.2.42.42,0,0,0,0-.22.41.41,0,0,0,0-.19.28.28,0,0,0-.11-.13A.42.42,0,0,0,3.34,2l-.19,0a.82.82,0,0,0-.64.29V1.84a1.27,1.27,0,0,1,.69-.21,1,1,0,0,1,.31.05.71.71,0,0,1,.26.13A.68.68,0,0,1,3.94,2a.73.73,0,0,1,.07.3A.65.65,0,0,1,4,2.61a1.76,1.76,0,0,1-.14.23,1.8,1.8,0,0,1-.19.2l-.19.18-.14.19a.43.43,0,0,0-.06.22.57.57,0,0,0,0,.18A.58.58,0,0,0,3.31,4Zm.2.91A.28.28,0,0,1,3,4.79a.23.23,0,0,1-.07-.17A.21.21,0,0,1,3,4.45a.22.22,0,0,1,.34,0,.21.21,0,0,1,.07.17.23.23,0,0,1-.07.17A.28.28,0,0,1,3.15,4.86Z" transform="translate(-0.11 -0.24)"/></svg>