<?xml version="1.0" encoding="utf-8"?>
<!-- Generator: Adobe Illustrator 26.0.1, SVG Export Plug-In . SVG Version: 6.00 Build 0)  -->
<svg version="1.1" id="Layer_1" xmlns="http://www.w3.org/2000/svg" xmlns:xlink="http://www.w3.org/1999/xlink" x="0px" y="0px"
	 viewBox="0 0 296.9 77.7" style="enable-background:new 0 0 296.9 77.7;" xml:space="preserve">
<style type="text/css">
	.st0{fill:#2E3192;}
	.st1{fill:#231F20;stroke:#231F20;stroke-width:0.5;stroke-miterlimit:10;}
	.st2{fill:none;}
	.st3{fill:#231F20;}
	.st4{fill:none;stroke:#231F20;stroke-width:0.5;stroke-miterlimit:10;}
</style>
<path class="st0" d="M44.3,77.7c-5.5-1.4-10.8-3.1-15.5-4.7c-0.8-0.3-1.7-0.5-2.5-0.6C16.7,72,8.5,64.9,8.5,51.9s7.9-21.3,18.8-21.3
	s18.1,8.5,18.1,20.5c0,10.4-4.8,17-11.5,19.4v0.2c4,1,8.4,2,11.8,2.6L44.3,77.7z M39.9,51.3c0-8.1-4.2-16.4-12.8-16.4
	c-8.8,0-13.1,8.2-13.1,16.9c-0.1,8.6,4.7,16.3,12.8,16.3C35.3,68.1,39.9,60.6,39.9,51.3z"/>
<path class="st1" d="M57.9,34.5c0,1.8-1.5,3.3-3.3,3.3s-3.3-1.5-3.3-3.3c0-1.8,1.4-3.3,3.1-3.3c0.1,0,0.1,0,0.2,0
	c1.7-0.1,3.2,1.3,3.2,3C57.9,34.3,57.9,34.4,57.9,34.5z M6.8,34.5c0.1,1.7-1.3,3.2-3,3.2c-0.1,0-0.2,0-0.4,0c-1.7,0-3.1-1.4-3.2-3.1
	c0,0,0-0.1,0-0.1c0-1.8,1.4-3.3,3.1-3.3c0.1,0,0.1,0,0.2,0c1.7-0.1,3.2,1.3,3.2,3C6.8,34.4,6.8,34.5,6.8,34.5z M84.4,11.1
	c0,1.8-1.5,3.3-3.3,3.3c-1.8,0-3.3-1.5-3.3-3.3c0-1.8,1.4-3.3,3.1-3.3c0.1,0,0.1,0,0.2,0c1.7-0.1,3.2,1.3,3.2,3
	C84.4,10.9,84.4,11,84.4,11.1z M33.7,7.8c0,1.8-1.5,3.3-3.3,3.3c-1.8,0-3.3-1.5-3.3-3.3c0-1.8,1.4-3.3,3.1-3.3c0.1,0,0.1,0,0.2,0
	c1.7-0.1,3.2,1.3,3.2,3C33.7,7.6,33.7,7.7,33.7,7.8z M115,24.7c0,1.8-1.5,3.3-3.3,3.3c-1.8,0-3.3-1.5-3.3-3.3c0-1.8,1.4-3.3,3.1-3.3
	c0.1,0,0.1,0,0.2,0c1.7-0.1,3.2,1.3,3.2,3C115,24.5,115,24.6,115,24.7z M149.8,14.4c0,1.8-1.5,3.3-3.3,3.3c-1.8,0-3.3-1.5-3.3-3.3
	c0-1.8,1.4-3.3,3.1-3.3c0.1,0,0.1,0,0.2,0c1.7-0.1,3.2,1.3,3.2,3C149.8,14.2,149.8,14.3,149.8,14.4L149.8,14.4z M5.5,31.8l22.7-21.5
	 M33.7,9.3l19.9,23.8 M57.3,32.5l21-19.7 M84.3,11.1l25.5,13.6 M114.9,24.7l28.4-10.3"/>
<path class="st0" d="M120,70.4c-3.4,1.4-7,2-10.7,1.9c-11.4,0-20-7.2-20-20.5c0-12.7,8.6-21.2,21.1-21.2c5,0,8.2,1.1,9.6,1.8
	l-1.3,4.3c-2.6-1.2-5.3-1.7-8.2-1.7c-9.5,0-15.8,6.1-15.8,16.7c0,9.9,5.7,16.2,15.5,16.2c2.9,0,5.8-0.5,8.5-1.7L120,70.4z"/>
<path class="st0" d="M158.6,50.6c0-3-0.1-5.5-0.2-7.9h4.7l0.3,4.8h0.1c1.9-3.5,5.6-5.6,9.6-5.5c4,0,10.3,2.4,10.3,12.4v17.3H178V55
	c0-4.7-1.7-8.6-6.7-8.6c-4.2,0.2-7.5,3.6-7.4,7.8v17.5h-5.3L158.6,50.6z"/>
<path class="st0" d="M191.9,50.6c0-3-0.1-5.5-0.2-7.9h4.7l0.3,4.8h0.1c1.9-3.5,5.6-5.6,9.6-5.5c4,0,10.3,2.4,10.3,12.4v17.3h-5.3V55
	c0-4.7-1.7-8.6-6.7-8.6c-4.2,0.2-7.5,3.6-7.4,7.8v17.5h-5.3L191.9,50.6z"/>
<path class="st0" d="M228.2,58.2c0.1,7.1,4.7,10.1,10,10.1c2.7,0.1,5.5-0.4,8-1.5l0.9,3.8c-3.1,1.3-6.3,1.9-9.7,1.8
	c-8.9,0-14.3-5.9-14.3-14.6S228.3,42,236.7,42c9.5,0,12,8.3,12,13.7c0,0.8-0.1,1.6-0.2,2.5H228.2z M243.6,54.4
	c0.1-3.4-1.4-8.6-7.3-8.6c-5.3,0-7.7,4.9-8.1,8.6H243.6z"/>
<path class="st0" d="M276,70.6c-2.6,1.2-5.5,1.7-8.3,1.7c-8.8,0-14.5-5.9-14.5-14.8s6.1-15.4,15.6-15.4c2.5,0,5,0.5,7.3,1.5
	l-1.2,4.1c-1.9-1-4-1.5-6.1-1.4c-6.7,0-10.3,4.9-10.3,11c0,6.7,4.3,10.9,10.1,10.9c2.2,0,4.5-0.5,6.5-1.4L276,70.6z"/>
<path class="st0" d="M289.3,34.4v8.3h7.6v4h-7.6v15.7c0,3.6,1,5.6,4,5.6c1,0,2.1-0.1,3.1-0.4l0.2,4c-1.5,0.5-3.1,0.8-4.7,0.7
	c-2.1,0.1-4.2-0.7-5.7-2.2c-1.5-1.6-2-4.1-2-7.5V46.7h-4.5v-4h4.5v-7L289.3,34.4z"/>
<line class="st2" x1="214" y1="-53.5" x2="213.9" y2="-68"/>
<path class="st3" d="M136.9,55.5c0,0.7-0.5,1.2-1.1,1.3c-0.1,0-0.1,0-0.2,0c-0.7,0-1.2-0.5-1.2-1.2c0,0,0,0,0-0.1
	c0-0.7,0.5-1.3,1.2-1.3c0,0,0,0,0.1,0c0.7,0,1.2,0.5,1.3,1.2C137,55.4,137,55.4,136.9,55.5z"/>
<path class="st3" d="M136.9,47.9c0,0.7-0.5,1.2-1.1,1.3c-0.1,0-0.1,0-0.2,0c-0.7,0-1.2-0.5-1.2-1.2c0,0,0,0,0-0.1
	c0-0.7,0.5-1.3,1.2-1.3c0,0,0,0,0.1,0c0.7,0,1.2,0.5,1.3,1.2C137,47.9,137,47.9,136.9,47.9z"/>
<path class="st3" d="M136.9,63c0,0.7-0.5,1.2-1.1,1.3c-0.1,0-0.1,0-0.2,0c-0.7,0-1.2-0.5-1.2-1.2c0,0,0,0,0-0.1
	c0-0.7,0.5-1.3,1.2-1.3c0,0,0,0,0.1,0c0.7,0,1.2,0.5,1.3,1.2C137,63,137,63,136.9,63z"/>
<path class="st3" d="M129.3,55.7c-0.1,0.7-0.7,1.2-1.4,1.2c-0.6-0.1-1.1-0.5-1.2-1.2c0-0.7,0.5-1.3,1.2-1.3c0,0,0,0,0.1,0
	C128.7,54.4,129.3,54.9,129.3,55.7C129.3,55.6,129.3,55.7,129.3,55.7z"/>
<path class="st3" d="M144.7,55.5c0.1,0.7-0.5,1.3-1.2,1.4c-0.7,0.1-1.3-0.5-1.4-1.2c0-0.1,0-0.2,0-0.2c0-0.7,0.5-1.3,1.2-1.3
	c0,0,0,0,0.1,0C144.1,54.2,144.6,54.7,144.7,55.5C144.7,55.4,144.7,55.4,144.7,55.5z"/>
<path class="st3" d="M131.6,51c-0.1,0.7-0.7,1.2-1.4,1.2c-0.6-0.1-1.1-0.5-1.2-1.2c0-0.7,0.5-1.3,1.2-1.3c0,0,0,0,0.1,0
	c0.7,0,1.2,0.5,1.3,1.2C131.6,50.9,131.6,51,131.6,51z"/>
<path class="st3" d="M131.8,61c-0.1,0.7-0.7,1.2-1.4,1.2c-0.6-0.1-1.1-0.5-1.2-1.2c0-0.7,0.5-1.3,1.2-1.3c0,0,0,0,0.1,0
	C131.2,59.7,131.8,60.2,131.8,61C131.8,60.9,131.8,61,131.8,61z"/>
<path class="st3" d="M142.1,61.1c0,0.7-0.5,1.2-1.1,1.3c-0.1,0-0.1,0-0.2,0c-0.7,0-1.2-0.5-1.2-1.2c0,0,0,0,0-0.1
	c0-0.7,0.5-1.3,1.2-1.3c0,0,0,0,0.1,0c0.7,0,1.2,0.5,1.3,1.2C142.1,61.1,142.1,61.1,142.1,61.1z"/>
<path class="st3" d="M142.1,49.9c0,0.7-0.5,1.2-1.1,1.3c-0.1,0-0.1,0-0.2,0c-0.7,0-1.2-0.5-1.2-1.2c0,0,0,0,0-0.1
	c0-0.7,0.5-1.3,1.2-1.3c0,0,0,0,0.1,0c0.7,0,1.2,0.5,1.3,1.2C142.1,49.9,142.1,49.9,142.1,49.9z"/>
<path class="st3" d="M130.5,42.8c0,0.7-0.5,1.2-1.1,1.3c0,0-0.1,0-0.1,0c-0.7,0-1.2-0.5-1.2-1.2c0,0,0,0,0-0.1
	c0-0.7,0.5-1.3,1.2-1.3c0,0,0,0,0,0c0.7,0,1.2,0.5,1.3,1.2C130.5,42.7,130.5,42.8,130.5,42.8z"/>
<path class="st3" d="M123.2,51c-0.1,0.7-0.7,1.2-1.4,1.2c-0.6-0.1-1.1-0.5-1.2-1.2c0-0.7,0.5-1.3,1.2-1.3c0,0,0,0,0.1,0
	c0.7,0,1.2,0.5,1.3,1.2C123.2,50.9,123.2,51,123.2,51z"/>
<path class="st3" d="M123.8,61.7c-0.1,0.7-0.7,1.2-1.4,1.2c-0.6-0.1-1.1-0.5-1.2-1.2c0-0.7,0.5-1.3,1.2-1.3c0,0,0,0,0.1,0
	c0.7,0,1.2,0.5,1.3,1.2C123.8,61.6,123.8,61.7,123.8,61.7z"/>
<path class="st3" d="M131.6,69.3c-0.1,0.7-0.7,1.2-1.4,1.2c-0.6-0.1-1.1-0.5-1.2-1.2c0-0.7,0.5-1.3,1.2-1.3c0,0,0,0,0.1,0
	C131,68,131.6,68.6,131.6,69.3C131.6,69.3,131.6,69.3,131.6,69.3z"/>
<path class="st3" d="M142.1,70.1c0,0.7-0.5,1.2-1.1,1.3c-0.1,0-0.1,0-0.2,0c-0.7,0-1.2-0.5-1.2-1.2c0,0,0,0,0-0.1
	c0-0.7,0.5-1.3,1.2-1.3c0,0,0,0,0.1,0c0.7,0,1.2,0.5,1.3,1.2C142.1,70.1,142.1,70.1,142.1,70.1z"/>
<path class="st3" d="M151.3,61.8c0,0.7-0.5,1.2-1.1,1.3c-0.1,0-0.1,0-0.2,0c-0.7,0-1.2-0.5-1.2-1.2c0,0,0,0,0-0.1
	c0-0.7,0.5-1.3,1.2-1.3c0,0,0,0,0.1,0c0.7,0,1.2,0.5,1.3,1.2C151.3,61.7,151.3,61.7,151.3,61.8z"/>
<path class="st3" d="M151.3,49.2c0,0.7-0.5,1.2-1.1,1.3c-0.1,0-0.1,0-0.2,0c-0.7,0-1.2-0.5-1.2-1.2c0,0,0,0,0-0.1
	c0-0.7,0.5-1.2,1.2-1.3c0.7-0.1,1.2,0.4,1.3,1.1C151.3,49.1,151.3,49.2,151.3,49.2z"/>
<path class="st3" d="M142.7,42.8c0,0.7-0.5,1.2-1.1,1.3c-0.1,0-0.1,0-0.2,0c-0.7,0-1.2-0.5-1.2-1.2c0,0,0,0,0-0.1
	c0-0.7,0.5-1.3,1.2-1.3c0,0,0,0,0.1,0c0.7,0,1.2,0.5,1.3,1.2C142.7,42.7,142.7,42.8,142.7,42.8z"/>
<line class="st4" x1="135.7" y1="49.2" x2="135.7" y2="54.9"/>
<line class="st4" x1="130.7" y1="51.2" x2="135.7" y2="55.7"/>
<line class="st4" x1="129.3" y1="55.7" x2="135.7" y2="55.7"/>
<line class="st4" x1="140.2" y1="50.5" x2="136.3" y2="55.4"/>
<line class="st4" x1="131" y1="60.3" x2="135.7" y2="56.2"/>
<line class="st4" x1="135.7" y1="62.4" x2="135.7" y2="56.7"/>
<line class="st4" x1="140.9" y1="60.5" x2="136.7" y2="56.3"/>
<line class="st2" x1="143.4" y1="55.4" x2="137" y2="55.5"/>
<line class="st4" x1="129.6" y1="42.8" x2="135.7" y2="55.7"/>
<line class="st4" x1="122.5" y1="51.2" x2="136.3" y2="55.4"/>
<line class="st4" x1="123.2" y1="61.4" x2="135.7" y2="55.7"/>
<line class="st4" x1="130.5" y1="68.9" x2="135.7" y2="56.2"/>
<line class="st4" x1="140.9" y1="68.9" x2="135.7" y2="56.2"/>
<line class="st4" x1="149.4" y1="61.8" x2="136.3" y2="55.4"/>
<line class="st4" x1="150" y1="49.7" x2="136.3" y2="55.4"/>
<line class="st4" x1="140.9" y1="43.4" x2="135.7" y2="54.9"/>
<rect x="52.1" y="42.7" class="st0" width="5.1" height="28.5"/>
</svg>
