<svg id="Layer_1" data-name="Layer 1" xmlns="http://www.w3.org/2000/svg" viewBox="0 0 10.15 9.66"><defs><style>.cls-1{fill:#070404;stroke:#383838;stroke-linecap:round;stroke-miterlimit:10;stroke-width:0.5px;}.cls-2{fill:#7d4e2d;}.cls-3{fill:#9b6527;}.cls-4{fill:#996c31;}.cls-5{fill:#231f20;}</style></defs><line class="cls-1" x1="3.57" y1="1.05" x2="9.16" y2="1.05"/><line class="cls-1" x1="3.57" y1="2.23" x2="9.16" y2="2.23"/><line class="cls-1" x1="4.07" y1="3.42" x2="9.16" y2="3.42"/><line class="cls-1" x1="4.26" y1="4.6" x2="9.16" y2="4.6"/><line class="cls-1" x1="3.57" y1="5.79" x2="9.16" y2="5.79"/><line class="cls-1" x1="3.57" y1="6.97" x2="9.16" y2="6.97"/><line class="cls-1" x1="3.57" y1="8.16" x2="9.16" y2="8.16"/><rect class="cls-2" x="2.1" y="5.09" width="2.07" height="2.07"/><polygon class="cls-3" points="5.09 6.82 4.17 7.17 4.17 5.09 5.09 4.75 5.09 6.82"/><polygon class="cls-4" points="4.17 5.09 2.1 5.09 3.02 4.75 5.09 4.75 4.17 5.09"/><path d="M4,3.85h-.6a1.8,1.8,0,0,0-.26-.56l.43-.43a.32.32,0,0,0,0-.46l-.19-.19a.34.34,0,0,0-.46,0l-.45.46a2.41,2.41,0,0,0-.53-.2V1.79a.31.31,0,0,0-.31-.31h-.3A.31.31,0,0,0,1,1.79v.68a2.24,2.24,0,0,0-.53.2L0,2.2a.3.3,0,0,0-.43,0l-.22.22a.3.3,0,0,0,0,.43l.44.44a1.78,1.78,0,0,0-.25.56h-.6a.31.31,0,0,0-.31.31v.3a.31.31,0,0,0,.31.31h.6a1.83,1.83,0,0,0,.25.55l-.43.43a.34.34,0,0,0,0,.46l.2.19A.31.31,0,0,0,0,6.4L.47,6A1,1,0,0,1,.63,6V5.17h0L.79,5.1a1,1,0,0,1-.38-.79,1.05,1.05,0,0,1,2.1,0,1,1,0,0,1-.14.48h1l0,0H4a.3.3,0,0,0,.3-.31v-.3A.3.3,0,0,0,4,3.85Z" transform="translate(1.37 -0.17)"/><path class="cls-5" d="M8.18.17H1.82a.6.6,0,0,0-.6.6v.64h.5V.77a.09.09,0,0,1,.1-.1H8.18a.09.09,0,0,1,.1.1V9.23a.09.09,0,0,1-.1.1H1.82a.09.09,0,0,1-.1-.1V7.38h-.5V9.23a.6.6,0,0,0,.6.6H8.18a.6.6,0,0,0,.6-.6V.77A.6.6,0,0,0,8.18.17Z" transform="translate(1.37 -0.17)"/></svg>