<svg id="Layer_1" data-name="Layer 1" xmlns="http://www.w3.org/2000/svg" viewBox="0 0 8.34 9.9"><defs><style>.cls-1{fill:#c9c9c6;stroke-width:0.5px;}.cls-1,.cls-2,.cls-3,.cls-4{stroke:#231f20;}.cls-1,.cls-2,.cls-3,.cls-4,.cls-5,.cls-6{stroke-miterlimit:10;}.cls-2{fill:#fff;}.cls-2,.cls-4{stroke-width:0.25px;}.cls-3,.cls-4,.cls-5,.cls-6{fill:none;}.cls-3,.cls-4{stroke-linecap:round;}.cls-3{stroke-width:0.35px;}.cls-5,.cls-6{stroke:#9e1f63;stroke-width:0.3px;}.cls-6{stroke-linecap:square;}</style></defs><rect class="cls-1" x="0.25" y="0.25" width="7.84" height="9.4" rx="0.38"/><rect class="cls-2" x="0.99" y="1.66" width="1.32" height="1.32"/><line class="cls-3" x1="3.21" y1="1.8" x2="6.92" y2="1.81"/><line class="cls-4" x1="3.23" y1="2.48" x2="5.38" y2="2.49"/><line class="cls-5" x1="2.88" y1="1.73" x2="1.7" y2="2.52"/><line class="cls-6" x1="1.35" y1="2.16" x2="1.68" y2="2.53"/><rect class="cls-2" x="0.99" y="4.17" width="1.32" height="1.32"/><line class="cls-3" x1="3.21" y1="4.31" x2="6.92" y2="4.32"/><line class="cls-4" x1="3.23" y1="4.99" x2="5.38" y2="5"/><line class="cls-5" x1="2.88" y1="4.24" x2="1.7" y2="5.03"/><line class="cls-6" x1="1.35" y1="4.67" x2="1.68" y2="5.04"/><rect class="cls-2" x="1" y="6.79" width="1.32" height="1.32"/><line class="cls-3" x1="3.23" y1="6.92" x2="6.94" y2="6.93"/><line class="cls-4" x1="3.25" y1="7.61" x2="5.39" y2="7.62"/><line class="cls-5" x1="2.9" y1="6.86" x2="1.71" y2="7.65"/><line class="cls-6" x1="1.36" y1="7.28" x2="1.7" y2="7.66"/></svg>