<svg id="Layer_1" data-name="Layer 1" xmlns="http://www.w3.org/2000/svg" viewBox="0 0 6.88 7.25"><defs><style>.cls-1{font-size:4.04px;fill:#3999d5;font-family:ArialRoundedMTBold, Arial Rounded MT Bold;letter-spacing:0.01em;}.cls-2{fill:none;stroke:#828282;stroke-miterlimit:10;stroke-width:0.5px;}</style></defs><path d="M3.43,5.61a2.6,2.6,0,0,1,.2-1A1.31,1.31,0,0,1,3.43,4,1.32,1.32,0,0,1,4.75,2.63,1.25,1.25,0,0,1,5.66,3a2.71,2.71,0,0,1,.41,0,2.62,2.62,0,0,1,1.08.24,2.39,2.39,0,0,0-.28-.58L7.56,2a.16.16,0,0,0,0-.22L7,1.14a.16.16,0,0,0-.22,0L6,1.87a2.91,2.91,0,0,0-.69-.27v-1A.15.15,0,0,0,5.18.4H4.32a.15.15,0,0,0-.15.15V1.6a2.68,2.68,0,0,0-.68.27l-.74-.74a.15.15,0,0,0-.2,0l-.61.61a.14.14,0,0,0,0,.21l.69.69a2.41,2.41,0,0,0-.33.73H1.35a.15.15,0,0,0-.15.15v.86a.15.15,0,0,0,.15.14H2.3a2.31,2.31,0,0,0,.33.73l-.69.69a.16.16,0,0,0,0,.22l.6.59a.16.16,0,0,0,.22,0L3.47,6A3,3,0,0,1,3.43,5.61Z" transform="translate(-1.2 -0.4)"/><text class="cls-1" transform="translate(4.2 6.4)">i</text><circle class="cls-2" cx="4.68" cy="4.88" r="1.95"/></svg>