<svg id="Layer_1" data-name="Layer 1" xmlns="http://www.w3.org/2000/svg" viewBox="0 0 10.37 8.3"><defs><style>.cls-1{fill:#898989;}.cls-2{fill:#176735;stroke:#176735;}.cls-2,.cls-3{stroke-miterlimit:10;stroke-width:0.25px;}.cls-3{fill:#e29927;stroke:#e29927;}.cls-4{fill:#f9f9fa;}.cls-5{fill:#231f20;}</style></defs><path class="cls-1" d="M6.26,7.54A2.13,2.13,0,0,1,8.39,5.41a2.1,2.1,0,0,1,1.32.47v-4a.4.4,0,0,0-.4-.4H.72a.4.4,0,0,0-.4.4V8a.4.4,0,0,0,.4.4H6.45A2,2,0,0,1,6.26,7.54Z" transform="translate(-0.09 -1.3)"/><path class="cls-2" d="M2.42,5.17C4.89,7,4.55,6.8,5.34,7.37l-4.56,0Z" transform="translate(-0.09 -1.3)"/><circle class="cls-3" cx="1.92" cy="2.04" r="0.7"/><rect x="8.08" y="4.36" width="0.64" height="3.94" rx="0.15"/><rect x="8.16" y="5.66" width="0.64" height="3.94" rx="0.15" transform="translate(-3 6.94) rotate(-45)"/><rect x="8.16" y="5.66" width="0.64" height="3.94" rx="0.15" transform="translate(0.77 14.82) rotate(-90)"/><rect x="8.16" y="5.66" width="0.64" height="3.94" rx="0.15" transform="translate(9 17.73) rotate(-135)"/><ellipse cx="8.4" cy="6.33" rx="1.41" ry="1.34"/><circle class="cls-4" cx="8.4" cy="6.33" r="0.73"/><path class="cls-5" d="M22.89-1.07" transform="translate(-0.09 -1.3)"/><path class="cls-5" d="M6.46,8.2H.85a.26.26,0,0,1-.26-.26V2.06A.26.26,0,0,1,.85,1.8h8.3a.26.26,0,0,1,.26.26V5.68a1.77,1.77,0,0,1,.5.36v-4a.76.76,0,0,0-.76-.76H.85a.76.76,0,0,0-.76.76V7.94a.76.76,0,0,0,.76.76h5.7a2,2,0,0,1,0-.34S6.48,8.25,6.46,8.2Z" transform="translate(-0.09 -1.3)"/><path class="cls-2" d="M7,5.79,5.22,4,2,7.33,6.1,7.4A2.13,2.13,0,0,1,7,5.79Z" transform="translate(-0.09 -1.3)"/></svg>