<svg id="Layer_1" data-name="Layer 1" xmlns="http://www.w3.org/2000/svg" viewBox="0 0 6.51 5.56"><defs><style>.cls-1{fill:#f9f9fa;}.cls-2{fill:#b7b7b7;}.cls-2,.cls-3{stroke:#231f20;stroke-miterlimit:10;stroke-width:0.05px;}.cls-3{fill:#f7f7f9;}</style></defs><rect x="4.94" y="2.86" width="0.44" height="2.7" rx="0.15"/><rect x="5.88" y="3.53" width="0.44" height="2.7" rx="0.15" transform="translate(-2.61 5.07) rotate(-45)"/><rect x="5.88" y="3.53" width="0.44" height="2.7" rx="0.15" transform="translate(0.28 10.3) rotate(-90)"/><rect x="5.88" y="3.53" width="0.44" height="2.7" rx="0.15" transform="translate(6.02 11.97) rotate(-135)"/><ellipse cx="5.16" cy="4.21" rx="0.96" ry="0.92"/><circle class="cls-1" cx="5.16" cy="4.21" r="0.5"/><path class="cls-2" d="M5,2.5H4.57a1.52,1.52,0,0,0-.19-.43l.32-.32a.24.24,0,0,0,0-.35l-.15-.15a.25.25,0,0,0-.34,0l-.35.35a1.38,1.38,0,0,0-.4-.15V.93A.23.23,0,0,0,3.23.7H3a.23.23,0,0,0-.23.23v.52a1.38,1.38,0,0,0-.4.15L2,1.25a.23.23,0,0,0-.34,0l-.16.16a.24.24,0,0,0,0,.33l.33.33a1.87,1.87,0,0,0-.19.43H1.2A.23.23,0,0,0,1,2.73V3a.23.23,0,0,0,.23.23h.45a1.87,1.87,0,0,0,.19.43l-.32.32a.24.24,0,0,0,0,.35l.15.14a.23.23,0,0,0,.34,0l.35-.34a1.74,1.74,0,0,0,.4.15v.52A.23.23,0,0,0,3,5h.24a.23.23,0,0,0,.23-.23V4.24a1.74,1.74,0,0,0,.4-.15l.36.35a.24.24,0,0,0,.33,0l.16-.16a.24.24,0,0,0,0-.33l-.33-.33a1.52,1.52,0,0,0,.19-.43H5A.23.23,0,0,0,5.26,3V2.73A.23.23,0,0,0,5,2.5Z" transform="translate(-0.94 -0.67)"/><circle class="cls-3" cx="2.17" cy="2.17" r="0.8"/></svg>