<svg id="Layer_1" data-name="Layer 1" xmlns="http://www.w3.org/2000/svg" viewBox="0 0 8.08 7.54"><defs><style>.cls-1{fill:#b7b7b7;}.cls-1,.cls-2,.cls-3,.cls-8{stroke:#231f20;}.cls-1,.cls-2,.cls-3,.cls-4,.cls-5,.cls-6,.cls-7,.cls-8{stroke-miterlimit:10;}.cls-1,.cls-2,.cls-3{stroke-width:0.25px;}.cls-2,.cls-4{fill:none;}.cls-2,.cls-3,.cls-4,.cls-5,.cls-6,.cls-7,.cls-8{stroke-linecap:round;}.cls-4{stroke:#ffd53c;stroke-width:0.15px;}.cls-5,.cls-9{fill:#fff;}.cls-5,.cls-6{stroke:#3a51a3;stroke-width:0.5px;}.cls-6{fill:#3953a4;}.cls-7,.cls-8{fill:#1c68aa;stroke-width:0.1px;}.cls-7{stroke:#000;}</style></defs><path class="cls-1" d="M5.75,4.3a1.76,1.76,0,0,1-.44,1.18A.86.86,0,0,0,5.12,6v.48a.19.19,0,0,1-.2.19H3.26a.18.18,0,0,1-.19-.19V6a.82.82,0,0,0-.2-.56A1.81,1.81,0,0,1,2.43,4.3,1.69,1.69,0,0,1,4.09,2.57,1.69,1.69,0,0,1,5.75,4.3Z" transform="translate(-1.08 -1.08)"/><line class="cls-2" x1="2.2" y1="6.03" x2="3.87" y2="6.02"/><line class="cls-2" x1="2.26" y1="6.43" x2="3.8" y2="6.43"/><path class="cls-3" d="M4.09,8.49a.6.6,0,0,0,.6-.59H3.5A.59.59,0,0,0,4.09,8.49Z" transform="translate(-1.08 -1.08)"/><line class="cls-4" x1="0.52" y1="1.34" x2="1.3" y2="1.83"/><line class="cls-4" x1="1.54" y1="0.47" x2="2.13" y2="1.18"/><line class="cls-4" x1="3.01" y1="0.07" x2="3.01" y2="1"/><line class="cls-4" x1="4.38" y1="0.41" x2="3.96" y2="1.23"/><line class="cls-4" x1="5.33" y1="1.28" x2="4.64" y2="1.89"/><line class="cls-4" x1="5.9" y1="2.36" x2="5.1" y2="2.68"/><line class="cls-4" x1="0.93" y1="2.55" x2="0.07" y2="2.45"/><line class="cls-5" x1="4.01" y1="2.95" x2="2.75" y2="3.92"/><line class="cls-6" x1="2.34" y1="3.53" x2="2.75" y2="3.92"/><path class="cls-7" d="M7.75,6l.08-1.07c0-.27-.42-.34-.51-.08L7,5.87,7.74,6Z" transform="translate(-1.08 -1.08)"/><path class="cls-7" d="M9,5.88H7C7,5.88,6.93,6,6.93,6l0,1.39A.11.11,0,0,0,7,7.53l1.35,0c.06,0,.2-.07.2-.13L9.11,6A.11.11,0,0,0,9,5.88Z" transform="translate(-1.08 -1.08)"/><rect class="cls-8" x="4.86" y="4.78" width="0.59" height="1.71" rx="0.15"/><circle class="cls-9" cx="5.15" cy="6.2" r="0.07"/></svg>