<svg id="Layer_1" data-name="Layer 1" xmlns="http://www.w3.org/2000/svg" viewBox="0 0 1.8 1.61"><defs><style>.cls-1{fill:#fcf506;}.cls-2{fill:none;stroke:#3030f9;stroke-linecap:square;stroke-miterlimit:10;stroke-width:0.15px;}.cls-3{fill:#e8da60;}</style></defs><polygon class="cls-1" points="1.24 1.44 0.84 1.23 0.45 1.44 0.53 0.99 0.21 0.68 0.65 0.62 0.85 0.22 1.05 0.62 1.49 0.69 1.17 1 1.24 1.44"/><line class="cls-2" x1="0.8" y1="0.7" x2="0.99" y2="0.9"/><line class="cls-2" x1="1.69" y1="0.28" x2="1.01" y2="0.91"/><polygon class="cls-3" points="1.5 0.58 1.39 0.68 1.45 0.69 1.15 0.98 1.22 1.4 0.85 1.2 0.47 1.4 0.54 0.98 0.24 0.69 0.66 0.63 0.84 0.25 1.03 0.63 1.15 0.65 1.26 0.55 1.1 0.52 0.84 0 0.58 0.53 0 0.62 0.42 1.03 0.33 1.61 0.85 1.33 1.37 1.6 1.27 1.02 1.69 0.6 1.5 0.58"/></svg>