<svg xmlns="http://www.w3.org/2000/svg" viewBox="0 0 9.52 9.59"><defs><style>.cls-1{fill:#969696;}.cls-2{fill:#231f20;}.cls-3,.cls-4{fill:none;stroke:#231f20;stroke-linecap:round;stroke-miterlimit:10;}.cls-4{stroke-width:0.5px;}</style></defs><g id="Layer_1" data-name="Layer 1"><rect class="cls-1" x="0.44" y="0.39" width="6.86" height="8.86"/><path class="cls-2" d="M7.59,7.58V9.21a.16.16,0,0,1-.16.16H1.13A.16.16,0,0,1,1,9.21V.94A.16.16,0,0,1,1.13.78h6.3a.16.16,0,0,1,.16.16V4.48h.5V.94A.67.67,0,0,0,7.43.28H1.13A.66.66,0,0,0,.47.94V9.21a.66.66,0,0,0,.66.66h6.3a.67.67,0,0,0,.66-.66V7.58Z" transform="translate(-0.47 -0.28)"/><line class="cls-3" x1="9.02" y1="3.41" x2="7.01" y2="6.44"/><polygon class="cls-2" points="7.01 7.06 6.21 7.64 6.43 6.67 6.51 6.31 7.32 6.84 7.01 7.06 7.01 7.06"/></g><g id="Layer_2" data-name="Layer 2"><line class="cls-4" x1="1.08" y1="7.79" x2="6.24" y2="7.82"/><line class="cls-4" x1="1.08" y1="1.51" x2="6.24" y2="1.53"/><line class="cls-4" x1="1.08" y1="3.08" x2="6.24" y2="3.11"/><line class="cls-4" x1="1.08" y1="4.65" x2="6.24" y2="4.68"/><line class="cls-4" x1="1.08" y1="6.22" x2="6.24" y2="6.25"/></g></svg>