<svg id="Layer_1" data-name="Layer 1" xmlns="http://www.w3.org/2000/svg" viewBox="0 0 8.13 9.29"><defs><style>.cls-1{fill:#a8a7a7;}.cls-2{fill:#231f20;}.cls-3{fill:#726f71;stroke-width:0.5px;}.cls-3,.cls-4{stroke:#231f20;stroke-miterlimit:10;}.cls-4{fill:none;stroke-width:0.25px;}.cls-5{fill:#fbb040;}.cls-6{fill:#8b5e3c;}</style></defs><path class="cls-1" d="M2.39.53a.81.81,0,0,0-.79.83v7a.8.8,0,0,0,.79.82H7.61a.8.8,0,0,0,.79-.82V2.4H6.11V.53Z" transform="translate(-1.33 -0.16)"/><path class="cls-2" d="M8.6,2.51H8.17V6.32a1.45,1.45,0,0,1,.5.08V2.5Z" transform="translate(-1.33 -0.16)"/><path class="cls-2" d="M2.34,9a.55.55,0,0,1-.5-.55V1.16a.53.53,0,0,1,.5-.55H5.62a.41.41,0,0,1,0-.45H2.34a1,1,0,0,0-1,1V8.4a1,1,0,0,0,.94,1H6.64a1.85,1.85,0,0,1-.3-.5Z" transform="translate(-1.33 -0.16)"/><path class="cls-3" d="M8.31,2.77,6.13,3a.42.42,0,0,1-.47-.38h0L5.45.69A.2.2,0,0,1,5.54.44a.2.2,0,0,1,.2,0l2.7,2a.18.18,0,0,1,0,.27A.12.12,0,0,1,8.31,2.77Z" transform="translate(-1.33 -0.16)"/><rect class="cls-4" x="5.72" y="5.7" width="0.89" height="0.67" rx="0.11"/><rect class="cls-5" x="4.26" y="6.56" width="3.77" height="2.73" rx="0.33"/><path class="cls-6" d="M9.3,7.25H5.66c-.09,0-.16,0-.16-.11V6.41c0-.06.07-.11.16-.11H9.3c.09,0,.16,0,.16.11v.73C9.46,7.2,9.39,7.25,9.3,7.25Z" transform="translate(-1.33 -0.16)"/><path class="cls-6" d="M9.37,7.22,8,8.11a.8.8,0,0,1-.83,0l-1.56-.9Z" transform="translate(-1.33 -0.16)"/><rect class="cls-2" x="5.98" y="7.56" width="0.5" height="0.83" rx="0.1"/></svg>