<svg version="1.1" id="Layer_1" xmlns="http://www.w3.org/2000/svg" xmlns:xlink="http://www.w3.org/1999/xlink" x="0px" y="0px"
	 width="100%" viewBox="0 0 656 608" enable-background="new 0 0 656 608" xml:space="preserve">
<path fill="#000000" opacity="1.000000" stroke="none" 
	d="
M433.861145,471.295929 
	C427.036957,464.851959 420.260040,466.458405 412.632690,469.323120 
	C388.813873,478.268982 364.018646,480.379486 338.889557,477.392883 
	C280.322540,470.432129 236.584351,440.650482 207.526276,389.709259 
	C189.578125,358.244659 183.529846,323.979919 187.565933,287.998627 
	C192.142593,247.198273 209.359207,212.461395 238.736710,183.939209 
	C259.414795,163.863159 283.792450,149.989944 311.721527,142.326813 
	C329.050568,137.572098 346.620117,135.168823 364.507507,136.076752 
	C378.299500,136.776825 391.989441,138.746597 405.224152,143.028961 
	C409.479584,144.405914 411.697083,147.678223 410.824585,151.212769 
	C409.832764,155.230637 406.188049,157.273987 401.280518,155.805054 
	C384.312744,150.726212 366.967407,149.597473 349.396881,150.153198 
	C323.163727,150.982880 298.968323,158.676193 276.594086,172.079071 
	C241.303177,193.219437 217.585739,223.759888 206.071014,263.094666 
	C195.689407,298.558655 197.413940,333.906067 211.815964,368.174316 
	C228.628647,408.178528 257.313812,436.600403 297.230713,453.478333 
	C313.411530,460.320007 330.325958,464.182953 348.041199,465.017487 
	C368.404633,465.976807 388.215820,463.967896 407.497009,457.264954 
	C409.050323,456.724915 410.558533,456.055206 412.000153,455.480682 
	C412.374359,453.094147 410.846405,451.805267 409.850006,450.376770 
	C385.376648,415.290710 401.221649,370.136444 437.025696,354.094269 
	C442.598236,351.597443 442.861542,351.319672 440.064636,345.677429 
	C431.482239,328.364075 417.618927,318.576385 398.143341,318.304596 
	C370.819000,317.923248 343.484863,318.117065 316.155731,318.240814 
	C291.673370,318.351685 270.570648,339.353638 270.185791,363.802460 
	C270.072998,370.966583 270.481323,378.153625 270.057526,385.294952 
	C269.225616,399.313324 280.933380,406.989014 291.674896,406.832428 
	C303.337555,406.662323 315.004578,406.796661 326.669708,406.793640 
	C343.667450,406.789246 360.665161,406.777893 377.662903,406.779449 
	C378.994141,406.779572 380.351440,406.705200 381.651611,406.928101 
	C385.204376,407.537292 387.331512,409.509796 387.347076,413.335144 
	C387.362427,417.107147 385.325745,419.358612 381.824066,419.956329 
	C379.226440,420.399750 376.509125,420.188324 373.845093,420.189392 
	C346.348724,420.200531 318.852386,420.206421 291.356018,420.191315 
	C271.232758,420.180267 256.565704,405.673218 256.698853,385.576111 
	C256.766083,375.437836 255.704605,365.250977 257.533203,355.159363 
	C262.670441,326.808594 286.526306,305.749786 315.339508,304.787170 
	C331.803192,304.237152 348.297211,304.617676 364.777252,304.526672 
	C374.256836,304.474335 383.735901,304.217285 393.215027,304.226501 
	C418.743195,304.251373 441.810486,316.420227 452.654510,341.361237 
	C454.772156,346.231750 457.150604,348.143799 462.577515,347.879730 
	C476.718292,347.191681 489.421722,351.851105 501.001404,359.790741 
	C501.959991,360.448059 502.890900,361.147980 503.873230,361.766876 
	C504.115082,361.919281 504.508575,361.831024 505.350372,361.889160 
	C509.135681,354.586884 511.062561,346.429352 512.377686,338.342773 
	C522.239136,277.708160 505.004486,226.512650 458.354523,185.833984 
	C455.472198,183.320618 452.327881,181.106384 449.290039,178.773056 
	C444.826141,175.344421 443.694824,171.970749 445.930115,168.668747 
	C448.420502,164.989914 452.623077,164.706604 457.335449,168.107407 
	C468.592834,176.231659 478.799774,185.532593 487.792725,196.108765 
	C507.178955,218.907944 519.829041,245.027313 525.653687,274.369141 
	C531.688354,304.768555 529.587891,334.680115 519.124023,363.859253 
	C516.819763,370.284912 516.413879,375.256561 520.250061,381.852386 
	C541.786987,418.881744 520.229858,467.312347 478.414764,476.766663 
	C463.151917,480.217590 448.294159,478.567444 433.861145,471.295929 
M441.080414,366.503357 
	C419.661743,377.085571 409.967499,397.189484 411.781830,416.889496 
	C415.343201,455.558350 452.786499,475.200073 485.529419,460.139587 
	C511.844604,448.035583 521.242249,419.032227 511.652161,393.628693 
	C501.762054,367.430450 467.969238,353.404694 441.080414,366.503357 
z"/>
<path fill="#000000" opacity="1.000000" stroke="none" 
	d="
M303.841675,243.329193 
	C307.203522,221.137039 318.678467,205.650787 339.443115,197.913910 
	C363.022491,189.128250 388.521118,198.030350 402.827087,219.485840 
	C424.163300,251.484985 403.287567,296.415741 365.230103,301.607452 
	C329.982605,306.415802 300.943573,277.171875 303.841675,243.329193 
M370.987915,286.598907 
	C380.221039,283.169617 387.567108,277.348724 392.398010,268.763367 
	C400.474121,254.410706 400.098663,239.864609 391.168121,226.222733 
	C382.062317,212.313049 368.457062,206.669037 352.005737,208.412186 
	C330.293579,210.712799 313.328125,233.784119 317.564178,254.919418 
	C322.628998,280.189697 345.119415,293.814667 370.987915,286.598907 
z"/>
<path fill="#000000" opacity="1.000000" stroke="none" 
	d="
M434.804596,409.103638 
	C439.405670,404.798370 444.790466,406.175964 449.831055,406.044373 
	C456.748779,405.863770 456.749786,405.986481 456.778687,399.119507 
	C456.791290,396.126465 456.689209,393.126068 456.864624,390.142242 
	C457.099579,386.145721 459.207336,383.550201 463.294495,383.157745 
	C466.764587,382.824554 469.955078,386.141144 470.172058,390.228821 
	C470.348083,393.545685 470.495422,396.906464 470.162659,400.197937 
	C469.679199,404.979767 471.831543,406.411560 476.225891,406.082672 
	C479.201172,405.859955 482.216614,405.935913 485.200134,406.113159 
	C490.423401,406.423492 493.683929,409.081329 493.689362,412.796387 
	C493.695190,416.819763 490.236084,419.848969 485.134735,420.058044 
	C481.648468,420.200928 478.148193,420.182526 474.660522,420.058075 
	C471.502594,419.945374 470.086487,421.203827 470.214020,424.450043 
	C470.357483,428.102509 470.327606,431.769257 470.194519,435.423279 
	C470.014587,440.363190 467.183167,443.412750 462.994812,443.155518 
	C458.278656,442.865936 457.015961,439.526276 456.857361,435.545380 
	C456.711823,431.892181 456.689850,428.225464 456.823090,424.572357 
	C456.938660,421.404419 455.703430,419.997406 452.456329,420.112732 
	C448.803528,420.242462 445.129608,420.270660 441.485168,420.032257 
	C435.097321,419.614380 432.631805,415.717896 434.804596,409.103638 
z"/>
</svg>