<svg version="1.1" id="Layer_1" xmlns="http://www.w3.org/2000/svg" xmlns:xlink="http://www.w3.org/1999/xlink" x="0px" y="0px"
	 width="100%" viewBox="0 0 864 640" enable-background="new 0 0 864 640" xml:space="preserve">
<path fill="#000000" opacity="1.000000" stroke="none" 
	d="
M458.858826,515.827393 
	C450.692993,526.318787 442.742737,536.526489 435.017914,546.444763 
	C432.566833,546.124512 431.822723,544.705566 430.929077,543.557007 
	C392.052246,493.590088 353.365021,443.478119 316.006622,392.357849 
	C308.144623,381.599701 300.463562,370.708740 292.749420,359.843262 
	C275.572296,335.649017 267.209503,308.807343 266.443054,279.034485 
	C265.422821,239.404343 275.941803,203.623825 299.828461,172.131104 
	C328.026215,134.954468 365.449585,112.873161 411.842987,106.622192 
	C453.094055,101.064095 491.486481,109.592186 526.102722,132.523880 
	C568.034607,160.301880 592.927246,199.460419 600.342407,249.378372 
	C605.216003,282.186646 601.521851,313.884521 585.880493,343.449219 
	C576.593811,361.002441 564.085938,376.529633 552.358398,392.499878 
	C521.891174,433.988983 490.541626,474.811523 458.858826,515.827393 
M309.480957,249.934311 
	C309.002411,254.226059 308.475800,258.513062 308.053192,262.810303 
	C305.468018,289.098419 310.753113,313.427917 326.088623,335.265839 
	C359.514160,382.864044 395.026917,428.906036 430.338379,475.097717 
	C433.816956,479.648193 434.336060,479.562225 437.943298,474.888245 
	C467.465485,436.636261 496.769775,398.218689 525.182434,359.132263 
	C533.309570,347.951965 541.971436,337.066101 548.542542,324.879822 
	C562.242798,299.472260 563.536560,272.351837 557.471008,244.795685 
	C543.222290,180.063965 479.823608,137.148743 414.460938,147.552612 
	C361.744446,155.943573 320.810425,195.618301 309.480957,249.934311 
z"/>
<path fill="#000000" opacity="1.000000" stroke="none" 
	d="
M397.956757,203.841141 
	C434.859497,184.697342 475.929321,195.229538 497.156464,230.243393 
	C523.533691,273.752289 498.740143,330.995056 447.511841,340.172333 
	C404.669525,347.847290 366.676331,319.934875 361.049500,276.794800 
	C357.275269,247.858612 370.263763,220.057251 397.956757,203.841141 
M409.608063,288.863983 
	C421.112030,300.755096 435.210083,303.585236 448.502075,296.671844 
	C462.033234,289.634003 468.946625,275.921234 465.496674,260.843323 
	C461.744965,244.446655 447.869904,234.985245 432.701111,235.640442 
	C419.776062,236.198700 409.825195,243.031128 404.638275,255.008499 
	C399.574219,266.702179 401.183990,278.089325 409.608063,288.863983 
z"/>
</svg>