<svg version="1.1" id="Layer_1" xmlns="http://www.w3.org/2000/svg" xmlns:xlink="http://www.w3.org/1999/xlink" x="0px" y="0px"
	 width="100%" viewBox="0 0 400 400" enable-background="new 0 0 400 400" xml:space="preserve">
<path fill="#000000" opacity="1.000000" stroke="none" 
	d="
M197.000000,285.048889 
	C167.682907,285.053955 138.865814,285.059418 110.048729,285.063873 
	C108.882744,285.064056 107.715324,285.090332 106.551079,285.042877 
	C103.988274,284.938538 101.162773,284.822632 100.906860,281.493744 
	C100.664597,278.342377 103.191673,277.872681 105.665916,277.680756 
	C109.163376,277.409485 108.723190,274.735809 108.727753,272.464905 
	C108.764557,254.141953 108.758087,235.818893 108.767296,217.495880 
	C108.768555,214.997345 108.855431,212.496521 108.775940,210.000793 
	C108.640671,205.754028 110.781273,203.921951 114.867294,203.950943 
	C118.531586,203.976944 122.206085,203.777847 125.858078,203.989151 
	C129.623520,204.207016 130.794876,202.589935 130.723923,198.978470 
	C130.553787,190.320145 130.795258,181.653839 130.633240,172.995193 
	C130.550583,168.577637 132.182663,166.625031 136.768906,166.697006 
	C147.426788,166.864273 158.091522,166.856918 168.748993,166.667831 
	C173.461609,166.584213 175.425156,168.442810 175.278580,173.162613 
	C175.087357,179.319565 175.225891,185.487366 175.258850,191.650284 
	C175.268982,193.544189 175.373596,195.488220 178.005692,195.522339 
	C180.400330,195.553406 181.097290,193.835526 181.347504,191.918396 
	C181.561951,190.275330 181.578949,188.598770 181.581024,186.936890 
	C181.601440,170.612762 181.711380,154.287338 181.526062,137.965363 
	C181.480804,133.980804 182.617493,131.497452 186.283249,129.644821 
	C193.114441,126.192421 199.753357,122.351273 206.398849,118.543732 
	C209.147903,116.968666 211.488251,117.004768 214.292786,118.652313 
	C220.750259,122.445816 227.326477,126.061920 234.021149,129.417587 
	C237.991730,131.407822 239.541061,134.190811 239.340820,138.570267 
	C239.074799,144.388077 239.415573,150.231796 239.226730,156.055664 
	C239.116394,159.458603 240.247375,160.948456 243.791626,160.774063 
	C247.945953,160.569641 252.118027,160.703720 256.282196,160.726456 
	C263.112122,160.763748 263.946930,161.559937 263.982330,168.585236 
	C264.038605,179.745224 263.966309,190.905869 264.024261,202.065842 
	C264.036133,204.349380 263.549500,206.732468 265.120117,209.521072 
	C271.356842,207.850601 277.754120,206.248459 284.084106,204.413986 
	C292.328186,202.024811 293.290680,202.682480 293.295654,211.439178 
	C293.306946,231.427933 293.328339,251.416779 293.276306,271.405396 
	C293.267181,274.914856 292.992249,278.223389 298.152496,277.948334 
	C299.935547,277.853302 301.223572,279.241730 301.319397,281.190582 
	C301.432526,283.491302 299.855621,284.503571 297.922577,284.785889 
	C295.959229,285.072662 293.940338,285.041931 291.945740,285.042725 
	C260.463837,285.055115 228.981918,285.050110 197.000000,285.048889 
M256.676788,251.499878 
	C256.677460,227.505646 256.764282,203.510986 256.644165,179.517349 
	C256.579407,166.576797 258.793823,168.451645 245.332016,167.999176 
	C240.443665,167.834869 239.133835,169.562851 239.162399,174.303192 
	C239.346115,204.794754 239.135239,235.288681 239.308472,265.780365 
	C239.386841,279.572937 236.454544,277.485657 252.046005,277.743591 
	C255.550491,277.801544 256.756989,276.374725 256.690033,272.994019 
	C256.554779,266.165222 256.665802,259.331543 256.676788,251.499878 
M167.791687,250.500031 
	C167.806000,226.852066 167.816925,203.204117 167.839218,179.556152 
	C167.841797,176.811569 168.082291,174.069901 163.983322,174.108871 
	C156.490646,174.180145 148.996246,174.106140 141.502899,174.048508 
	C139.126297,174.030243 137.800446,174.726273 137.861969,177.486343 
	C138.028976,184.977173 137.993149,192.472748 138.012314,199.966507 
	C138.018204,202.268967 138.748962,204.035355 141.379913,203.873917 
	C147.431961,203.502502 148.431839,206.894562 148.385025,212.048370 
	C148.201965,232.197662 148.385345,252.350113 148.255234,272.500244 
	C148.230820,276.282715 149.228363,278.115173 153.322296,277.760681 
	C156.462723,277.488739 159.663925,277.499084 162.805634,277.766113 
	C166.904465,278.114410 167.969131,276.237488 167.859329,272.482025 
	C167.654984,265.493317 167.795242,258.494598 167.791687,250.500031 
M185.358780,202.879288 
	C184.526474,202.883652 183.694153,202.886948 182.861847,202.892548 
	C175.249084,202.943665 175.240707,202.943771 175.240067,210.652069 
	C175.238586,228.629898 175.237274,246.607742 175.252640,264.585571 
	C175.263992,277.864655 175.277512,277.684814 188.818161,277.816528 
	C193.453781,277.861603 194.838943,276.324524 194.797195,271.783203 
	C194.612076,251.643158 194.710052,231.500305 194.744980,211.358536 
	C194.763351,200.770309 195.056946,203.021988 185.358780,202.879288 
M198.455292,160.168930 
	C197.743011,158.451035 196.699417,157.111526 194.709076,158.325409 
	C193.038177,159.344452 193.188950,161.181046 193.494522,162.835648 
	C193.758118,164.263000 194.703781,165.471527 196.217834,165.172882 
	C198.491898,164.724319 198.653595,162.771637 198.455292,160.168930 
M197.868881,144.991562 
	C195.661896,142.892563 194.170502,143.937637 193.525391,146.295609 
	C192.986816,148.264160 193.120361,150.705093 195.621902,151.150299 
	C198.011459,151.575577 198.509293,149.455338 198.558823,147.499893 
	C198.575150,146.854630 198.348618,146.203217 197.868881,144.991562 
M193.839172,177.554779 
	C195.202347,179.135635 196.647232,179.194595 197.858398,177.499100 
	C198.876785,176.073441 198.881119,174.426437 197.941818,172.908249 
	C197.300034,171.870941 196.282608,171.094849 195.086288,171.741608 
	C192.962830,172.889633 193.260803,174.943680 193.839172,177.554779 
M212.656296,162.185287 
	C212.722855,160.294815 212.719406,158.284042 210.395752,157.816803 
	C208.791473,157.494186 208.087387,158.927582 207.729416,160.238861 
	C207.206894,162.152908 207.495682,164.055634 209.394333,164.981293 
	C211.266190,165.893875 212.008514,164.340836 212.656296,162.185287 
M194.959091,192.372711 
	C198.607727,192.937866 198.649612,190.459259 198.375732,188.062668 
	C198.197128,186.499710 197.142975,185.026443 195.352661,185.658997 
	C192.946106,186.509262 193.261063,188.707504 193.655716,190.701355 
	C193.745148,191.153229 194.143280,191.544022 194.959091,192.372711 
M120.013023,225.238846 
	C121.166595,226.620300 122.482712,226.963318 123.725853,225.484436 
	C125.040436,223.920624 124.921745,222.131577 123.883743,220.459976 
	C123.322906,219.556793 122.335320,219.086197 121.328178,219.567078 
	C119.075905,220.642410 119.202400,222.610855 120.013023,225.238846 
M122.352119,233.344498 
	C118.789619,234.003677 119.041679,236.404434 119.957649,238.909470 
	C120.372955,240.045288 121.508453,240.911789 122.724754,240.168381 
	C125.211143,238.648743 125.009491,236.457611 123.742058,234.201111 
	C123.591576,233.933197 123.262909,233.765350 122.352119,233.344498 
M209.216049,199.588074 
	C207.054642,201.756470 207.218948,204.078888 209.248749,206.058975 
	C210.427322,207.208664 211.978241,206.480942 212.340469,205.013000 
	C212.919281,202.667236 213.641479,199.949203 209.216049,199.588074 
M210.361633,192.621826 
	C213.675476,191.352158 212.950012,188.848434 212.061340,186.495117 
	C211.700668,185.539993 210.416397,185.077240 209.527802,185.782562 
	C207.312164,187.541290 207.626801,189.754211 208.854858,191.964081 
	C208.996933,192.219772 209.378754,192.342209 210.361633,192.621826 
M122.836975,247.203125 
	C119.157852,246.774704 119.395348,249.418182 119.517151,251.683685 
	C119.591949,253.074951 120.608276,254.414505 122.127434,253.975082 
	C124.785553,253.206207 124.858528,251.035446 124.171402,248.776825 
	C124.034775,248.327759 123.645737,247.955444 122.836975,247.203125 
M211.538757,144.493958 
	C208.182098,142.915237 207.932526,145.427551 207.778778,147.559906 
	C207.662598,149.171249 207.994507,151.286697 210.087387,151.205582 
	C212.704544,151.104172 212.756119,148.792068 212.645203,146.777527 
	C212.611603,146.167206 212.219086,145.576660 211.538757,144.493958 
M280.349823,237.505020 
	C278.864227,238.986771 278.992004,240.879333 279.494751,242.570511 
	C280.129089,244.704086 282.145691,245.108810 283.084381,243.293182 
	C284.265411,241.008865 285.503021,237.819885 280.349823,237.505020 
M266.162354,226.609009 
	C266.205597,228.272079 266.181091,230.108582 268.337860,230.397354 
	C269.974945,230.616547 270.601776,229.320358 270.717102,227.909485 
	C270.849213,226.292450 271.116791,224.398895 269.210999,223.664703 
	C267.403412,222.968338 266.527222,224.191406 266.162354,226.609009 
M134.097366,247.358963 
	C132.850769,248.485092 132.944000,249.971848 133.046997,251.433884 
	C133.143829,252.808578 133.523026,254.190399 135.203613,254.131485 
	C136.698380,254.079071 137.504166,252.913071 137.562500,251.487274 
	C137.648148,249.394058 137.997284,246.996292 134.097366,247.358963 
M266.206970,239.837799 
	C266.157227,241.623795 265.865662,243.598114 268.125488,244.283920 
	C269.473785,244.693085 270.292999,243.729111 270.547028,242.518097 
	C270.879456,240.933167 271.241058,239.131622 269.798615,237.965927 
	C268.321930,236.772537 267.089813,237.471649 266.206970,239.837799 
M137.385742,238.530670 
	C137.646317,236.570816 138.330307,234.424042 135.744446,233.449463 
	C134.693298,233.053299 133.723267,233.539230 133.316467,234.611618 
	C132.717667,236.190063 132.259140,237.912643 133.350296,239.397247 
	C134.579208,241.069275 135.902588,240.488266 137.385742,238.530670 
M222.203018,230.546387 
	C222.237762,232.282593 222.360321,234.116409 224.664520,234.086060 
	C226.304642,234.064453 226.766525,232.657455 226.796722,231.222824 
	C226.831894,229.551086 226.952484,227.616135 224.879456,227.124863 
	C222.873596,226.649506 222.382401,228.214218 222.203018,230.546387 
M279.277863,227.349518 
	C279.396362,229.137650 279.868988,230.823624 282.106476,230.329636 
	C283.887665,229.936371 283.860413,228.184998 283.850067,226.704803 
	C283.840607,225.353226 283.599945,223.882538 282.063690,223.591415 
	C279.776581,223.158035 279.390411,224.844162 279.277863,227.349518 
M226.607971,201.167404 
	C225.875381,199.528137 224.682648,198.797623 223.189606,200.059036 
	C221.774261,201.254807 222.109726,203.047424 222.443588,204.632935 
	C222.703720,205.868378 223.652145,206.744995 224.934052,206.367264 
	C227.259048,205.682175 226.753220,203.637543 226.607971,201.167404 
M225.713348,164.501633 
	C227.131088,163.025391 226.969543,161.236862 226.623383,159.463654 
	C226.416901,158.405930 225.614914,157.656738 224.557205,157.808701 
	C223.864151,157.908279 222.791779,158.531006 222.694092,159.066299 
	C222.260300,161.443344 220.829620,164.437195 225.713348,164.501633 
M133.603760,225.832962 
	C136.800156,227.352631 137.379730,225.219025 137.624771,222.853683 
	C137.789627,221.262436 137.396362,219.554260 135.499893,219.513870 
	C133.011154,219.460846 132.895477,221.674103 132.656067,223.465561 
	C132.576996,224.057281 132.983185,224.713852 133.603760,225.832962 
M212.511459,176.940460 
	C212.761581,174.990738 213.252045,172.915466 210.922363,171.833038 
	C209.877747,171.347702 208.980469,171.935745 208.516586,172.905823 
	C207.774414,174.457855 207.640472,176.175110 208.559662,177.614700 
	C209.607285,179.255432 210.982559,178.935181 212.511459,176.940460 
M222.774017,219.359421 
	C224.748505,221.250961 226.140976,220.599655 226.640060,218.197693 
	C226.998642,216.472000 227.382507,214.095779 224.990891,213.612762 
	C222.336029,213.076599 222.270920,215.350616 222.238342,217.238205 
	C222.229858,217.729401 222.379135,218.223312 222.774017,219.359421 
M208.051849,218.465836 
	C208.757721,220.047516 209.755676,221.108231 211.468643,219.764816 
	C212.987228,218.573837 212.856171,216.806274 212.498779,215.156403 
	C212.219772,213.868362 211.199081,213.055038 209.907639,213.383286 
	C207.549820,213.982605 207.685120,215.937012 208.051849,218.465836 
M225.802261,172.101517 
	C222.329727,170.674332 222.387680,173.199173 222.271637,175.345856 
	C222.188141,176.890625 222.572662,178.597534 224.455063,178.522644 
	C226.970657,178.422577 226.802368,176.266113 226.774460,174.474258 
	C226.764740,173.849335 226.467545,173.228867 225.802261,172.101517 
M222.425476,187.207428 
	C222.154663,189.148102 221.673111,191.212753 223.891251,192.364410 
	C224.880753,192.878159 225.856201,192.318710 226.320938,191.355057 
	C227.059860,189.822906 227.200027,188.119064 226.315994,186.663239 
	C225.326172,185.033203 223.975266,185.160095 222.425476,187.207428 
M226.811462,146.878357 
	C226.484116,145.103790 225.844803,143.445709 223.634033,144.220810 
	C221.884567,144.834167 222.200638,146.638168 222.252930,148.099045 
	C222.303482,149.510773 222.827255,150.935883 224.367020,151.031876 
	C226.722534,151.178680 226.738297,149.255951 226.811462,146.878357 
z"/>
<path fill="#000000" opacity="1.000000" stroke="none" 
	d="
M164.023560,229.442810 
	C163.095749,232.043594 161.478302,232.954910 159.264679,232.125854 
	C157.292206,231.387115 156.921478,229.529205 156.885071,227.634003 
	C156.845367,225.566650 157.161789,223.600143 159.314743,222.661499 
	C162.254532,221.379776 164.046158,223.799377 164.023560,229.442810 
z"/>
<path fill="#000000" opacity="1.000000" stroke="none" 
	d="
M164.016235,240.512238 
	C164.116867,241.410965 164.157135,241.907440 164.161133,242.404221 
	C164.180222,244.770706 163.568924,246.789627 160.829727,247.097824 
	C158.642807,247.343857 157.335938,246.017487 157.036850,243.995880 
	C156.695999,241.692169 156.481567,239.127319 158.930527,237.778183 
	C161.392868,236.421692 162.990875,237.771713 164.016235,240.512238 
z"/>
<path fill="#000000" opacity="1.000000" stroke="none" 
	d="
M162.979553,201.670349 
	C160.395233,203.515732 158.434753,203.022858 157.412735,200.558716 
	C156.429489,198.188065 156.169998,195.400909 158.443253,193.661789 
	C160.836029,191.831192 162.990585,192.971725 163.890121,195.638000 
	C164.519714,197.504181 164.546707,199.588089 162.979553,201.670349 
z"/>
<path fill="#000000" opacity="1.000000" stroke="none" 
	d="
M156.982086,211.213165 
	C157.699753,208.581955 159.037811,207.315231 161.467117,207.912933 
	C163.370926,208.381317 164.031204,209.912064 164.141296,211.691269 
	C164.277771,213.896866 164.282654,216.149109 161.947922,217.352448 
	C159.196930,218.770325 157.237854,216.512100 156.982086,211.213165 
z"/>
<path fill="#000000" opacity="1.000000" stroke="none" 
	d="
M141.812881,199.648987 
	C141.895767,197.778397 141.752289,196.220901 142.234161,194.889786 
	C142.870209,193.132858 144.445053,192.428223 146.258469,193.181595 
	C148.447250,194.090881 148.720688,196.118057 148.657684,198.150848 
	C148.594177,200.200272 148.146317,202.227386 145.814987,202.811798 
	C143.624069,203.361008 142.478958,201.994522 141.812881,199.648987 
z"/>
<path fill="#000000" opacity="1.000000" stroke="none" 
	d="
M148.550369,181.686829 
	C148.450394,183.333130 148.544220,184.721786 148.123123,185.931152 
	C147.500076,187.720627 146.017227,188.521500 144.163910,187.796555 
	C141.673859,186.822510 141.663483,184.581024 141.704834,182.377548 
	C141.741669,180.414993 142.270264,178.616516 144.396484,178.168411 
	C146.809845,177.659760 148.078415,179.070694 148.550369,181.686829 
z"/>
<path fill="#000000" opacity="1.000000" stroke="none" 
	d="
M163.418274,186.167923 
	C161.650894,188.270187 159.840027,188.838928 158.170959,186.926575 
	C156.368286,184.861145 156.513657,182.360641 157.637360,179.991882 
	C158.333221,178.525055 159.667542,177.688690 161.285095,178.253860 
	C163.672852,179.088120 164.261246,181.130814 164.123932,183.427719 
	C164.075882,184.231812 163.805862,185.022644 163.418274,186.167923 
z"/>
</svg>