<svg version="1.1" id="Layer_1" xmlns="http://www.w3.org/2000/svg" xmlns:xlink="http://www.w3.org/1999/xlink" x="0px" y="0px"
	 width="100%" viewBox="0 0 1024 1024" enable-background="new 0 0 1024 1024" xml:space="preserve">
<path fill="#000000" opacity="1.000000" stroke="none" 
	d="
M712.999878,897.368164 
	C543.512024,897.374878 374.524170,897.381165 205.536301,897.388489 
	C197.723587,897.388794 197.712570,897.393372 197.709808,889.381714 
	C197.704971,875.382629 197.517807,861.380188 197.752457,847.384949 
	C198.907578,778.487427 219.575348,716.122925 261.085785,660.984497 
	C297.059998,613.199829 343.178375,578.703186 398.985718,557.130981 
	C402.504395,555.770813 405.441711,555.728210 408.946442,557.357361 
	C438.122162,570.919373 468.752960,578.458740 500.966888,580.011292 
	C541.533264,581.966370 580.140808,574.438171 616.921692,557.398438 
	C620.398071,555.787903 623.366760,555.636536 626.887756,557.082825 
	C731.126099,599.898438 796.049927,676.129700 821.396606,785.942322 
	C827.767212,813.542664 828.727539,841.644287 828.298584,869.836609 
	C828.194641,876.667969 828.286682,883.502197 828.267578,890.335022 
	C828.248047,897.351929 828.236816,897.369751 820.991516,897.370667 
	C785.161011,897.375366 749.330444,897.369751 712.999878,897.368164 
z"/>
<path fill="#000000" opacity="1.000000" stroke="none" 
	d="
M310.248169,355.500610 
	C304.297058,295.224976 320.707428,242.295349 360.370605,197.114273 
	C392.184784,160.874130 432.342743,138.281418 479.999023,131.230423 
	C550.906128,120.739342 612.101685,141.385071 661.951355,193.240402 
	C691.697632,224.183517 709.157043,261.580658 715.078003,303.990021 
	C729.627869,408.203918 663.557434,503.749054 565.882690,529.452026 
	C475.542572,553.224976 383.449890,515.165771 336.295959,434.539459 
	C322.092163,410.253021 313.321869,384.017578 310.248169,355.500610 
z"/>
</svg>