<svg version="1.1" id="Layer_1" xmlns="http://www.w3.org/2000/svg" xmlns:xlink="http://www.w3.org/1999/xlink" x="0px" y="0px"
	 width="100%" viewBox="0 0 600 600" enable-background="new 0 0 600 600" xml:space="preserve">
<path fill="#FFFFFF" opacity="1.000000" stroke="none" 
	d="
M419.000000,601.000000 
	C280.862000,601.000000 143.223969,600.984802 5.586047,601.083923 
	C1.998909,601.086487 0.891053,600.532959 0.893483,596.587769 
	C1.014871,399.462219 1.013722,202.336594 0.895506,5.211072 
	C0.893281,1.500772 1.785515,0.910046 5.287265,0.911807 
	C202.412842,1.010946 399.538452,1.009092 596.664001,0.923785 
	C600.027588,0.922329 601.117126,1.314092 601.114563,5.162377 
	C600.984375,202.454544 600.987732,399.746796 601.099060,597.039001 
	C601.101013,600.539734 600.303345,601.098267 596.962463,601.091187 
	C537.808472,600.965393 478.654205,601.000000 419.000000,601.000000 
z"/>
<path fill="#040404" opacity="1.000000" stroke="none" 
	d="
M417.193481,427.195374 
	C366.845917,470.981171 309.497650,484.315796 246.735458,463.247986 
	C183.559052,442.041077 145.106155,396.489319 132.491928,331.032562 
	C114.498047,237.659912 180.561096,145.837433 274.485046,131.853836 
	C367.117249,118.062569 452.873779,178.050110 469.457428,269.920776 
	C480.493835,331.060516 462.174103,383.678345 417.193481,427.195374 
z"/>
<path fill="#FDFDFD" opacity="1.000000" stroke="none" 
	d="
M248.414337,443.715881 
	C197.536011,423.169495 165.096954,386.812500 152.852386,333.594879 
	C133.249451,248.396133 192.387634,163.069489 278.899780,150.865463 
	C358.613983,139.620407 431.639221,189.959473 449.560699,268.508484 
	C468.770447,352.703949 410.695892,438.086365 325.495880,451.119110 
	C299.261169,455.132172 273.739319,452.722717 248.414337,443.715881 
z"/>
<path fill="#010101" opacity="1.000000" stroke="none" 
	d="
M396.796875,400.800598 
	C337.579529,456.812714 244.460800,450.755981 193.527328,387.948303 
	C191.041397,384.882812 190.771652,382.566711 192.521576,379.121002 
	C205.688965,353.193573 226.516876,339.095093 255.754242,338.731445 
	C285.896301,338.356537 316.049072,338.420471 346.192810,338.723358 
	C375.437164,339.017181 396.335938,352.975861 409.617615,378.825623 
	C411.414246,382.322418 411.629242,385.096954 408.564667,388.094055 
	C404.526672,392.043121 400.874847,396.387085 396.796875,400.800598 
z"/>
<path fill="#010101" opacity="1.000000" stroke="none" 
	d="
M239.376770,231.540741 
	C250.347336,202.146851 276.900726,185.432709 308.099792,188.021759 
	C336.217407,190.355118 360.093140,212.685150 365.520508,241.725098 
	C372.158630,277.243622 347.996643,311.037354 311.265900,317.607361 
	C277.299286,323.682953 242.759888,299.172424 236.883484,264.933044 
	C234.954880,253.695740 235.689926,242.718613 239.376770,231.540741 
z"/>
</svg>