<svg version="1.1" id="Layer_1" xmlns="http://www.w3.org/2000/svg" xmlns:xlink="http://www.w3.org/1999/xlink" x="0px" y="0px"
	 width="100%" viewBox="0 0 1080 1080" enable-background="new 0 0 1080 1080" xml:space="preserve">
<path fill="#000000" opacity="1.000000" stroke="none" 
	d="
M1.000000,253.000000 
	C1.000000,168.676346 1.000000,84.852684 1.000000,1.021766 
	C360.948761,1.014511 720.897522,1.014511 1080.923096,1.014511 
	C1080.923096,360.907227 1080.923096,720.814453 1080.923096,1080.860840 
	C721.000061,1080.860840 361.000031,1080.860840 1.000000,1080.860840 
	C1.000000,805.101990 1.000000,529.300964 1.000000,253.000000 
M185.995422,945.922302 
	C185.988037,966.625366 185.933731,987.328796 186.060669,1008.031006 
	C186.071045,1009.720886 187.318283,1011.403137 187.990463,1013.959473 
	C188.058823,1016.102905 187.521286,1018.497620 188.289856,1020.350647 
	C195.449478,1037.612427 208.523804,1047.346558 227.888824,1050.034302 
	C421.125092,1050.022827 614.361389,1050.011230 807.597656,1050.002686 
	C809.429871,1050.002563 811.262024,1050.042236 813.882446,1050.119507 
	C818.836243,1048.649902 823.999695,1047.663696 828.705750,1045.622925 
	C844.615479,1038.723755 851.444580,1025.296875 854.040161,1008.103638 
	C854.025940,770.031433 854.008911,531.959229 854.000061,293.887054 
	C853.998596,254.902603 854.033569,215.918167 854.125793,176.122345 
	C852.751099,171.721680 851.900085,167.066528 849.907349,162.966248 
	C842.835449,148.414825 830.803833,140.174652 814.187195,136.922104 
	C794.122314,136.946381 774.057434,136.970657 753.489929,136.954300 
	C753.322388,136.968475 753.154907,136.982635 753.003174,136.059998 
	C753.003540,116.685852 753.052124,97.311363 752.917603,77.938148 
	C752.906250,76.295074 751.671448,74.660484 751.057922,72.124352 
	C751.968506,59.535904 744.379822,51.155117 736.427612,43.093506 
	C729.519653,36.090488 720.081238,34.443352 710.144836,31.936083 
	C668.830078,31.958309 627.515381,32.002048 586.200623,31.998926 
	C432.435913,31.987303 278.671234,31.960276 124.122070,31.878534 
	C122.629234,32.527988 121.173393,33.626957 119.637520,33.753334 
	C110.248077,34.525940 102.938660,39.218857 96.890404,45.947788 
	C90.256058,53.328762 85.373253,61.673599 84.192314,72.279030 
	C84.123100,73.269279 83.993263,74.259529 83.993217,75.249779 
	C83.981270,350.872711 83.976913,626.495605 84.017479,902.118530 
	C84.017670,903.415649 84.659523,904.712646 84.990936,906.857910 
	C85.962189,910.756592 86.515869,914.820251 87.979301,918.524475 
	C93.385612,932.209106 103.724960,940.379883 118.396194,944.775146 
	C119.869568,944.866394 121.342880,945.035889 122.816322,945.037109 
	C143.883789,945.054443 164.951263,945.049072 186.019745,944.982971 
	C186.019745,944.982971 185.953568,944.981140 185.995422,945.922302 
M886.074158,968.958862 
	C886.014771,981.623108 885.925659,994.287415 885.944641,1006.951538 
	C885.946411,1008.150391 886.627136,1009.348145 887.016663,1011.292114 
	C887.292969,1012.062927 887.733459,1012.815491 887.821045,1013.607178 
	C889.214417,1026.200317 895.843445,1035.633789 906.317810,1042.050781 
	C911.589539,1045.280518 917.873413,1046.858032 924.317200,1049.829224 
	C935.761292,1049.926025 947.205627,1050.071655 958.649109,1050.028809 
	C959.582642,1050.025269 960.511292,1048.735962 962.265198,1048.032104 
	C964.255493,1047.989380 966.464355,1048.501709 968.202026,1047.817627 
	C984.054932,1041.575562 994.372375,1030.398682 998.117065,1012.486572 
	C998.078918,1008.987732 998.007629,1005.488831 998.007385,1001.989990 
	C997.996277,838.196350 997.994385,674.402710 997.945312,510.609070 
	C997.944763,508.897034 997.333435,507.185181 997.126282,504.756805 
	C995.114624,500.427002 992.916992,496.172424 991.129578,491.751953 
	C987.271362,482.209717 983.736145,472.536285 979.836365,463.011688 
	C978.207275,459.032928 975.714478,455.407440 974.090149,451.427185 
	C970.314697,442.175934 967.030518,432.722046 963.171570,423.507629 
	C958.785583,413.034668 953.572205,402.890137 949.587341,392.276611 
	C948.076477,388.252625 945.409546,386.549683 942.487671,387.173370 
	C939.765137,387.754547 936.514648,390.347626 935.335083,392.903564 
	C929.956299,404.558990 925.323059,416.555634 920.222412,428.343353 
	C917.473816,434.695374 914.007507,440.746216 911.424622,447.158356 
	C906.877502,458.447174 902.915283,469.970825 898.412109,481.278259 
	C894.839844,490.248383 890.825012,499.042328 886.327942,508.451111 
	C886.218628,510.771088 886.013977,513.091064 886.013672,515.411011 
	C885.998169,639.600403 885.998840,763.789734 886.009644,887.979126 
	C886.009827,889.972046 886.155579,891.964905 886.102783,894.893188 
	C886.132690,919.272949 886.162598,943.652710 886.074158,968.958862 
z"/>
<path fill="#282625" opacity="1.000000" stroke="none" 
	d="
M117.745483,944.176453 
	C103.724960,940.379883 93.385612,932.209106 87.979301,918.524475 
	C86.515869,914.820251 85.962189,910.756592 85.035721,905.973022 
	C85.050331,901.256958 84.993759,897.425842 84.993752,893.594727 
	C84.993408,619.727173 84.997543,345.859650 85.001328,71.992126 
	C85.373253,61.673599 90.256058,53.328762 96.890404,45.947788 
	C102.938660,39.218857 110.248077,34.525940 119.637520,33.753334 
	C121.173393,33.626957 122.629234,32.527988 124.829353,32.198917 
	C127.010612,32.677193 128.484573,32.973248 129.958557,32.973389 
	C321.943176,32.991871 513.927795,32.991425 705.912415,32.942863 
	C707.642334,32.942425 709.372131,32.283459 711.101990,31.931948 
	C720.081238,34.443352 729.519653,36.090488 736.427612,43.093506 
	C744.379822,51.155117 751.968506,59.535904 751.008545,72.993668 
	C751.226379,77.330803 751.706421,80.797516 751.724365,84.266624 
	C751.807007,100.244644 751.726074,116.223511 751.814392,132.201477 
	C751.823242,133.802017 752.578491,135.398468 752.987366,136.996811 
	C753.154907,136.982635 753.322388,136.968475 754.054871,137.249390 
	C755.262817,137.688904 755.905640,137.958405 756.548950,137.959518 
	C774.858887,137.991577 793.168884,138.017731 811.478699,137.958755 
	C812.705139,137.954803 813.929382,137.272949 815.154663,136.906403 
	C830.803833,140.174652 842.835449,148.414825 849.907349,162.966248 
	C851.900085,167.066528 852.751099,171.721680 853.804077,176.841080 
	C853.326111,179.367599 853.033142,181.175354 853.033020,182.983154 
	C853.012451,456.436737 853.010986,729.890320 853.055237,1003.343933 
	C853.055603,1005.245789 853.698120,1007.147583 854.040771,1009.049377 
	C851.444580,1025.296875 844.615479,1038.723755 828.705750,1045.622925 
	C823.999695,1047.663696 818.836243,1048.649902 813.170654,1049.805054 
	C810.984070,1049.333252 809.509277,1049.038208 808.034424,1049.038086 
	C616.072998,1049.017456 424.111633,1049.015625 232.150238,1049.060669 
	C230.413300,1049.061035 228.676529,1049.701904 226.939682,1050.043701 
	C208.523804,1047.346558 195.449478,1037.612427 188.289856,1020.350647 
	C187.521286,1018.497620 188.058823,1016.102905 187.983597,1013.093811 
	C187.645142,1008.950500 187.045227,1005.674316 187.026886,1002.394897 
	C186.930496,985.153992 187.012863,967.912109 186.935562,950.670959 
	C186.927048,948.772949 186.295929,946.877686 185.953568,944.981140 
	C185.953568,944.981140 186.019745,944.982971 185.701370,944.743225 
	C183.586365,944.345093 181.789993,944.052795 179.993042,944.049133 
	C161.944885,944.012451 143.896622,944.016479 125.848396,944.027283 
	C123.147400,944.028931 120.446449,944.124451 117.745483,944.176453 
M825.423218,1033.177368 
	C837.805969,1025.412598 842.206360,1013.787659 842.203674,999.682983 
	C842.151733,728.882751 842.165283,458.082489 842.164307,187.282227 
	C842.164307,185.782455 842.198364,184.280624 842.134888,182.783203 
	C841.295349,162.971436 827.046753,148.838730 807.703491,148.836533 
	C615.893616,148.814774 424.083710,148.815979 232.273804,148.842117 
	C220.074539,148.843781 210.606949,154.150604 203.651749,164.146057 
	C198.926468,170.936859 198.312134,178.640213 198.312210,186.528961 
	C198.314957,457.662506 198.314331,728.796082 198.316391,999.929626 
	C198.316406,1001.595947 198.025787,1003.343506 198.422440,1004.913879 
	C199.827103,1010.474915 200.492676,1016.523743 203.218689,1021.390442 
	C209.938065,1033.386475 221.078720,1037.784302 234.599075,1037.757202 
	C300.090790,1037.626099 365.582947,1037.700195 431.074951,1037.700439 
	C555.226440,1037.700928 679.377991,1037.699951 803.529480,1037.701782 
	C810.885986,1037.701904 818.204407,1037.522461 825.423218,1033.177368 
M96.049080,805.500000 
	C96.049911,836.329407 96.533989,867.169128 95.878029,897.984497 
	C95.455788,917.820190 112.328102,934.191895 131.299057,933.448608 
	C147.605530,932.809631 163.956940,933.318237 180.288467,933.317993 
	C188.087006,933.317871 188.089188,933.316406 188.089188,925.474487 
	C188.089600,680.334839 188.087769,435.195129 188.103683,190.055466 
	C188.103973,185.725983 188.151123,181.384583 188.462036,177.069321 
	C189.296143,165.491837 194.800735,156.274612 203.439774,148.859238 
	C212.559753,141.031021 223.368454,138.281845 235.235672,138.286179 
	C400.384125,138.346466 565.532593,138.326706 730.681091,138.326385 
	C732.180908,138.326385 733.689636,138.220215 735.178772,138.345901 
	C738.290771,138.608521 739.684143,137.525360 739.659546,134.145355 
	C739.515320,114.315468 739.528137,94.484413 739.499084,74.653732 
	C739.489197,67.860138 736.649475,62.124264 732.639404,56.931946 
	C724.815491,46.801384 713.897095,43.925442 701.720459,43.926853 
	C513.241211,43.948708 324.761993,43.941540 136.282745,43.948566 
	C133.950714,43.948654 131.525360,43.651379 129.304993,44.176056 
	C123.724838,45.494652 117.707809,46.246441 112.816956,48.947498 
	C100.634109,55.675678 95.981155,66.804436 95.986160,80.579727 
	C96.073860,321.886475 96.049294,563.193237 96.049080,805.500000 
z"/>
<path fill="#282625" opacity="1.000000" stroke="none" 
	d="
M887.006714,507.914520 
	C890.825012,499.042328 894.839844,490.248383 898.412109,481.278259 
	C902.915283,469.970825 906.877502,458.447174 911.424622,447.158356 
	C914.007507,440.746216 917.473816,434.695374 920.222412,428.343353 
	C925.323059,416.555634 929.956299,404.558990 935.335083,392.903564 
	C936.514648,390.347626 939.765137,387.754547 942.487671,387.173370 
	C945.409546,386.549683 948.076477,388.252625 949.587341,392.276611 
	C953.572205,402.890137 958.785583,413.034668 963.171570,423.507629 
	C967.030518,432.722046 970.314697,442.175934 974.090149,451.427185 
	C975.714478,455.407440 978.207275,459.032928 979.836365,463.011688 
	C983.736145,472.536285 987.271362,482.209717 991.129578,491.751953 
	C992.916992,496.172424 995.114624,500.427002 997.040161,505.631439 
	C996.977173,507.505646 997.020630,508.505219 997.020569,509.504791 
	C997.011108,675.649109 996.994995,841.793457 997.029968,1007.937744 
	C997.030334,1009.794006 997.694580,1011.650085 998.048950,1013.506287 
	C994.372375,1030.398682 984.054932,1041.575562 968.202026,1047.817627 
	C966.464355,1048.501709 964.255493,1047.989380 961.394653,1048.054565 
	C949.779541,1048.370483 939.034851,1048.659912 928.290527,1048.961792 
	C926.759338,1049.004761 925.229858,1049.107544 923.699585,1049.182739 
	C917.873413,1046.858032 911.589539,1045.280518 906.317810,1042.050781 
	C895.843445,1035.633789 889.214417,1026.200317 887.821045,1013.607178 
	C887.733459,1012.815491 887.292969,1012.062927 887.129822,1010.421692 
	C887.100769,995.718079 886.958557,981.884949 886.859192,967.581848 
	C886.855530,942.718384 886.809082,918.324890 886.835083,893.472046 
	C886.949463,890.350159 887.028381,887.687561 887.028320,885.024902 
	C887.025391,759.321472 887.015625,633.617981 887.006714,507.914520 
M899.168335,754.499512 
	C899.168701,798.980103 899.214661,843.460876 899.093018,887.941162 
	C899.081848,892.009583 900.184570,893.405212 904.408630,893.376892 
	C930.062927,893.204529 955.719727,893.196472 981.373779,893.386169 
	C985.551086,893.417053 986.296570,891.897705 986.294189,888.161133 
	C986.214233,765.714600 986.203857,643.267944 986.323792,520.821472 
	C986.328247,516.289795 984.872925,515.264404 980.606689,515.295410 
	C955.785522,515.476013 930.962341,515.381287 906.139832,515.385193 
	C899.176208,515.386292 899.169861,515.395020 899.169678,522.600098 
	C899.167664,599.566528 899.167847,676.533020 899.168335,754.499512 
M899.048401,989.499634 
	C899.216064,996.489807 899.074829,1003.504211 899.620789,1010.464722 
	C900.526855,1022.016113 911.493164,1035.039185 922.925476,1036.638794 
	C933.869995,1038.170288 945.158264,1039.131348 956.119934,1038.223633 
	C973.596802,1036.776245 986.572754,1021.829651 986.255554,1005.593140 
	C986.044006,994.767700 986.145081,983.933472 986.288147,973.105530 
	C986.330322,969.913208 985.314697,968.683350 982.006714,968.695068 
	C955.849060,968.787842 929.690796,968.790527 903.533203,968.696472 
	C899.949341,968.683594 898.887268,970.167786 899.004639,973.507019 
	C899.179993,978.499207 899.049133,983.502075 899.048401,989.499634 
M986.081665,952.382690 
	C986.081482,937.731201 985.972168,923.078247 986.156677,908.429138 
	C986.203735,904.691895 985.028687,903.582764 981.313110,903.602844 
	C955.673706,903.741516 930.032898,903.731689 904.393311,903.614319 
	C900.657715,903.597229 899.009644,904.512207 899.063538,908.617004 
	C899.258057,923.432495 899.229553,938.252930 899.084717,953.069519 
	C899.044678,957.165955 900.500610,958.523621 904.637939,958.498352 
	C930.110596,958.342651 955.585327,958.337769 981.057861,958.505310 
	C985.078796,958.531738 986.576721,957.194336 986.081665,952.382690 
M976.726562,487.860199 
	C972.759399,478.416473 968.838562,468.952850 964.796875,459.541077 
	C963.582581,456.713287 962.672302,453.727509 958.347717,453.833893 
	C947.858765,454.091888 937.350281,453.693542 926.871216,454.105835 
	C924.832947,454.186066 922.046753,456.309082 921.064941,458.234131 
	C918.140381,463.968079 915.947693,470.074829 913.458801,476.031647 
	C909.723572,484.971924 905.979553,493.908600 902.064880,503.263306 
	C903.837158,503.694489 904.906860,504.180054 905.977539,504.182129 
	C930.133484,504.228699 954.289612,504.192322 978.445496,504.253906 
	C982.685120,504.264709 982.718750,502.048401 981.537170,499.072266 
	C980.130615,495.529480 978.601501,492.035339 976.726562,487.860199 
z"/>
<path fill="#AAAAAA" opacity="1.000000" stroke="none" 
	d="
M84.596817,72.135574 
	C84.997543,345.859650 84.993408,619.727173 84.993752,893.594727 
	C84.993759,897.425842 85.050331,901.256958 85.041107,905.548889 
	C84.659523,904.712646 84.017670,903.415649 84.017479,902.118530 
	C83.976913,626.495605 83.981270,350.872711 83.993217,75.249779 
	C83.993263,74.259529 84.123100,73.269279 84.596817,72.135574 
z"/>
<path fill="#363636" opacity="1.000000" stroke="none" 
	d="
M854.040466,1008.576538 
	C853.698120,1007.147583 853.055603,1005.245789 853.055237,1003.343933 
	C853.010986,729.890320 853.012451,456.436737 853.033020,182.983154 
	C853.033142,181.175354 853.326111,179.367599 853.766968,177.246765 
	C854.033569,215.918167 853.998596,254.902603 854.000061,293.887054 
	C854.008911,531.959229 854.025940,770.031433 854.040466,1008.576538 
z"/>
<path fill="#3D3D3D" opacity="1.000000" stroke="none" 
	d="
M710.623413,31.934013 
	C709.372131,32.283459 707.642334,32.942425 705.912415,32.942863 
	C513.927795,32.991425 321.943176,32.991871 129.958557,32.973389 
	C128.484573,32.973248 127.010612,32.677193 125.221581,32.229168 
	C278.671234,31.960276 432.435913,31.987303 586.200623,31.998926 
	C627.515381,32.002048 668.830078,31.958309 710.623413,31.934013 
z"/>
<path fill="#3A3A3A" opacity="1.000000" stroke="none" 
	d="
M227.414246,1050.039062 
	C228.676529,1049.701904 230.413300,1049.061035 232.150238,1049.060669 
	C424.111633,1049.015625 616.072998,1049.017456 808.034424,1049.038086 
	C809.509277,1049.038208 810.984070,1049.333252 812.776611,1049.776978 
	C811.262024,1050.042236 809.429871,1050.002563 807.597656,1050.002686 
	C614.361389,1050.011230 421.125092,1050.022827 227.414246,1050.039062 
z"/>
<path fill="#5B5B5B" opacity="1.000000" stroke="none" 
	d="
M998.083008,1012.996460 
	C997.694580,1011.650085 997.030334,1009.794006 997.029968,1007.937744 
	C996.994995,841.793457 997.011108,675.649109 997.020569,509.504791 
	C997.020630,508.505219 996.977173,507.505646 996.980591,505.989655 
	C997.333435,507.185181 997.944763,508.897034 997.945312,510.609070 
	C997.994385,674.402710 997.996277,838.196350 998.007385,1001.989990 
	C998.007629,1005.488831 998.078918,1008.987732 998.083008,1012.996460 
z"/>
<path fill="#6B6B6B" opacity="1.000000" stroke="none" 
	d="
M886.667358,508.182800 
	C887.015625,633.617981 887.025391,759.321472 887.028320,885.024902 
	C887.028381,887.687561 886.949463,890.350159 886.703247,893.478760 
	C886.499084,893.944641 886.233398,893.957825 886.233398,893.957825 
	C886.155579,891.964905 886.009827,889.972046 886.009644,887.979126 
	C885.998840,763.789734 885.998169,639.600403 886.013672,515.411011 
	C886.013977,513.091064 886.218628,510.771088 886.667358,508.182800 
z"/>
<path fill="#5B5B5B" opacity="1.000000" stroke="none" 
	d="
M886.168091,894.425537 
	C886.233398,893.957825 886.499084,893.944641 886.630859,893.937988 
	C886.809082,918.324890 886.855530,942.718384 886.703613,967.575562 
	C886.505249,968.039185 886.192444,968.032471 886.192444,968.032471 
	C886.162598,943.652710 886.132690,919.272949 886.168091,894.425537 
z"/>
<path fill="#3A3A3A" opacity="1.000000" stroke="none" 
	d="
M118.070839,944.475830 
	C120.446449,944.124451 123.147400,944.028931 125.848396,944.027283 
	C143.896622,944.016479 161.944885,944.012451 179.993042,944.049133 
	C181.789993,944.052795 183.586365,944.345093 185.700867,944.776367 
	C164.951263,945.049072 143.883789,945.054443 122.816322,945.037109 
	C121.342880,945.035889 119.869568,944.866394 118.070839,944.475830 
z"/>
<path fill="#3D3D3D" opacity="1.000000" stroke="none" 
	d="
M185.974487,945.451721 
	C186.295929,946.877686 186.927048,948.772949 186.935562,950.670959 
	C187.012863,967.912109 186.930496,985.153992 187.026886,1002.394897 
	C187.045227,1005.674316 187.645142,1008.950500 187.983765,1012.658569 
	C187.318283,1011.403137 186.071045,1009.720886 186.060669,1008.031006 
	C185.933731,987.328796 185.988037,966.625366 185.974487,945.451721 
z"/>
<path fill="#FDFDFD" opacity="1.000000" stroke="none" 
	d="
M752.995239,136.528412 
	C752.578491,135.398468 751.823242,133.802017 751.814392,132.201477 
	C751.726074,116.223511 751.807007,100.244644 751.724365,84.266624 
	C751.706421,80.797516 751.226379,77.330803 750.982056,73.442474 
	C751.671448,74.660484 752.906250,76.295074 752.917603,77.938148 
	C753.052124,97.311363 753.003540,116.685852 752.995239,136.528412 
z"/>
<path fill="#3D3D3D" opacity="1.000000" stroke="none" 
	d="
M814.670898,136.914246 
	C813.929382,137.272949 812.705139,137.954803 811.478699,137.958755 
	C793.168884,138.017731 774.858887,137.991577 756.548950,137.959518 
	C755.905640,137.958405 755.262817,137.688904 754.306152,137.269714 
	C774.057434,136.970657 794.122314,136.946381 814.670898,136.914246 
z"/>
<path fill="#6B6B6B" opacity="1.000000" stroke="none" 
	d="
M886.133301,968.495667 
	C886.192444,968.032471 886.505249,968.039185 886.660828,968.045471 
	C886.958557,981.884949 887.100769,995.718079 887.117798,1010.048828 
	C886.627136,1009.348145 885.946411,1008.150391 885.944641,1006.951538 
	C885.925659,994.287415 886.014771,981.623108 886.133301,968.495667 
z"/>
<path fill="#3D3D3D" opacity="1.000000" stroke="none" 
	d="
M924.008423,1049.505981 
	C925.229858,1049.107544 926.759338,1049.004761 928.290527,1048.961792 
	C939.034851,1048.659912 949.779541,1048.370483 960.983154,1048.060547 
	C960.511292,1048.735962 959.582642,1050.025269 958.649109,1050.028809 
	C947.205627,1050.071655 935.761292,1049.926025 924.008423,1049.505981 
z"/>
<path fill="#C9C5BA" opacity="1.000000" stroke="none" 
	d="
M825.113770,1033.390381 
	C818.204407,1037.522461 810.885986,1037.701904 803.529480,1037.701782 
	C679.377991,1037.699951 555.226440,1037.700928 431.074951,1037.700439 
	C365.582947,1037.700195 300.090790,1037.626099 234.599075,1037.757202 
	C221.078720,1037.784302 209.938065,1033.386475 203.218689,1021.390442 
	C200.492676,1016.523743 199.827103,1010.474915 198.422440,1004.913879 
	C198.025787,1003.343506 198.316406,1001.595947 198.316391,999.929626 
	C198.314331,728.796082 198.314957,457.662506 198.312210,186.528961 
	C198.312134,178.640213 198.926468,170.936859 203.651749,164.146057 
	C210.606949,154.150604 220.074539,148.843781 232.273804,148.842117 
	C424.083710,148.815979 615.893616,148.814774 807.703491,148.836533 
	C827.046753,148.838730 841.295349,162.971436 842.134888,182.783203 
	C842.198364,184.280624 842.164307,185.782455 842.164307,187.282227 
	C842.165283,458.082489 842.151733,728.882751 842.203674,999.682983 
	C842.206360,1013.787659 837.805969,1025.412598 825.113770,1033.390381 
M481.500000,592.144226 
	C410.674500,592.145691 339.848999,592.139282 269.023499,592.158325 
	C260.044678,592.160767 255.497803,596.016235 255.148026,604.260193 
	C254.872772,610.747559 254.916107,617.262390 255.146866,623.753357 
	C255.371002,630.058044 257.945831,633.491150 263.672180,635.187500 
	C265.842499,635.830444 268.283722,635.685608 270.601471,635.685852 
	C440.749390,635.705688 610.897339,635.704102 781.045227,635.702637 
	C782.711548,635.702637 784.388367,635.799255 786.042358,635.651123 
	C791.823486,635.133545 796.315918,630.661377 796.449463,624.890198 
	C796.622986,617.396729 796.508789,609.894836 796.424622,602.397644 
	C796.373657,597.858154 793.881897,594.747070 789.758728,593.441040 
	C786.819580,592.510010 783.575439,592.196411 780.467102,592.194519 
	C681.144775,592.133606 581.822388,592.144409 481.500000,592.144226 
M723.500000,740.780945 
	C727.999207,740.781006 732.498474,740.781311 736.997681,740.781128 
	C751.995544,740.780640 766.993530,740.757385 781.991333,740.788208 
	C790.460693,740.805664 797.369873,737.746704 796.612732,726.453552 
	C796.234558,720.812866 796.623901,715.124634 796.516907,709.460754 
	C796.365662,701.452515 792.116577,697.249573 784.058838,697.248657 
	C612.083313,697.229492 440.107727,697.229919 268.132172,697.246399 
	C259.779816,697.247192 255.420456,701.333374 255.127411,709.598328 
	C254.909073,715.756287 254.947250,721.932190 255.120590,728.093018 
	C255.341904,735.959351 259.202209,739.964111 267.068329,740.690979 
	C269.383148,740.904907 271.730988,740.778503 274.063721,740.778564 
	C423.542480,740.781128 573.021240,740.780823 723.500000,740.780945 
M486.499939,530.343689 
	C584.332397,530.343628 682.164856,530.343994 779.997314,530.340820 
	C782.163513,530.340759 784.344666,530.455322 786.493042,530.248596 
	C791.956604,529.722961 796.219116,525.561462 796.375122,520.150208 
	C796.595947,512.491943 796.502075,504.821136 796.389648,497.157928 
	C796.316223,492.152069 793.389343,489.112762 788.762207,487.960571 
	C786.064514,487.288879 783.171631,487.190979 780.366516,487.190430 
	C610.701355,487.156921 441.036224,487.160309 271.371094,487.160797 
	C270.037781,487.160797 268.702545,487.122894 267.371460,487.179504 
	C259.520935,487.513367 255.443924,491.458496 255.143051,499.327118 
	C254.945770,504.486450 255.075836,509.658905 255.084366,514.825439 
	C255.103958,526.694580 258.714539,530.338989 270.501831,530.340027 
	C342.167847,530.346069 413.833893,530.343628 486.499939,530.343689 
M412.500000,382.242432 
	C387.502289,382.242462 362.504608,382.233856 337.506897,382.256805 
	C335.179901,382.258942 332.833679,382.308258 330.530029,382.600769 
	C324.864258,383.320160 321.481476,386.726471 321.298462,392.457489 
	C321.059296,399.947449 321.040558,407.458893 321.320190,414.946411 
	C321.550354,421.110168 325.795258,424.848145 332.049011,425.063385 
	C333.214325,425.103455 334.381927,425.083557 335.548462,425.083557 
	C484.535004,425.084198 633.521545,425.084229 782.508057,425.081940 
	C784.007690,425.081909 785.516235,425.148865 787.005310,425.014648 
	C792.110962,424.554413 796.151855,420.764496 796.314758,415.629120 
	C796.568237,407.640350 796.560669,399.632996 796.331360,391.643066 
	C796.190491,386.732849 792.843140,383.361908 787.935730,382.710907 
	C785.141235,382.340210 782.291687,382.260620 779.466919,382.260162 
	C657.477966,382.239594 535.488953,382.242645 412.500000,382.242432 
M422.500031,277.243073 
	C371.020264,277.245789 319.539886,277.370026 268.061279,277.127930 
	C259.773163,277.088959 255.039688,282.033569 255.087738,289.905823 
	C255.116211,294.570465 255.236740,299.241455 255.050934,303.899017 
	C254.655167,313.819672 257.164764,320.090698 270.741486,320.022644 
	C341.711853,319.666718 412.684937,319.857605 483.657074,319.855896 
	C491.987091,319.855713 500.317963,319.913239 508.646820,319.811096 
	C516.147827,319.719116 519.979187,315.870880 520.057800,308.485016 
	C520.121643,302.488037 519.669128,296.455109 520.176697,290.500458 
	C520.924255,281.729706 515.112671,277.006195 506.965546,277.110229 
	C479.147675,277.465576 451.322479,277.244446 422.500031,277.243073 
M500.061798,816.723389 
	C500.391052,808.039978 496.171722,802.451050 485.925201,802.489807 
	C413.280182,802.764954 340.633636,802.632202 267.987579,802.645264 
	C259.540283,802.646790 255.418793,806.511108 255.145996,814.951782 
	C254.946976,821.109924 254.941559,827.286804 255.173218,833.443176 
	C255.462799,841.139709 259.367676,844.905396 266.989044,845.244629 
	C269.317627,845.348267 271.653534,845.299744 273.986084,845.299866 
	C327.970764,845.302246 381.955475,845.303589 435.940155,845.300659 
	C453.101929,845.299744 470.264343,845.373352 487.425171,845.241333 
	C495.909393,845.176025 499.815460,841.151001 500.022125,832.666809 
	C500.143799,827.671082 500.056061,822.670166 500.061798,816.723389 
M696.500000,897.909302 
	C687.000427,897.909302 677.500854,897.909119 668.001282,897.909424 
	C644.502502,897.910339 621.003662,897.886902 597.504944,897.925049 
	C588.617920,897.939453 584.372314,902.125244 584.152161,911.047791 
	C584.037048,915.711426 584.120056,920.380127 584.129150,925.046570 
	C584.153870,937.692688 587.894104,941.468323 600.452148,941.469604 
	C660.615662,941.475525 720.779175,941.472290 780.942688,941.471313 
	C782.109253,941.471313 783.278320,941.505798 784.441956,941.443726 
	C792.084473,941.036804 796.318726,936.781555 796.486572,929.131409 
	C796.614502,923.301025 796.573364,917.465698 796.530334,911.633118 
	C796.457458,901.756104 792.524658,897.918213 782.495544,897.914185 
	C754.163696,897.902710 725.831848,897.909546 696.500000,897.909302 
M785.433960,244.028412 
	C785.163940,243.608780 784.861694,243.206238 784.628357,242.767105 
	C764.039673,204.032150 716.512878,194.267731 683.057190,222.170364 
	C660.687622,240.826950 653.401001,270.429535 663.920593,296.560211 
	C678.333313,332.361176 718.769836,348.878082 753.799805,332.338745 
	C772.311768,323.598328 784.135864,308.956757 789.716675,289.473877 
	C794.095337,274.187714 792.173401,259.193451 785.433960,244.028412 
z"/>
<path fill="#DFDDD1" opacity="1.000000" stroke="none" 
	d="
M96.049088,805.000000 
	C96.049294,563.193237 96.073860,321.886475 95.986160,80.579727 
	C95.981155,66.804436 100.634109,55.675678 112.816956,48.947498 
	C117.707809,46.246441 123.724838,45.494652 129.304993,44.176056 
	C131.525360,43.651379 133.950714,43.948654 136.282745,43.948566 
	C324.761993,43.941540 513.241211,43.948708 701.720459,43.926853 
	C713.897095,43.925442 724.815491,46.801384 732.639404,56.931946 
	C736.649475,62.124264 739.489197,67.860138 739.499084,74.653732 
	C739.528137,94.484413 739.515320,114.315468 739.659546,134.145355 
	C739.684143,137.525360 738.290771,138.608521 735.178772,138.345901 
	C733.689636,138.220215 732.180908,138.326385 730.681091,138.326385 
	C565.532593,138.326706 400.384125,138.346466 235.235672,138.286179 
	C223.368454,138.281845 212.559753,141.031021 203.439774,148.859238 
	C194.800735,156.274612 189.296143,165.491837 188.462036,177.069321 
	C188.151123,181.384583 188.103973,185.725983 188.103683,190.055466 
	C188.087769,435.195129 188.089600,680.334839 188.089188,925.474487 
	C188.089188,933.316406 188.087006,933.317871 180.288467,933.317993 
	C163.956940,933.318237 147.605530,932.809631 131.299057,933.448608 
	C112.328102,934.191895 95.455788,917.820190 95.878029,897.984497 
	C96.533989,867.169128 96.049911,836.329407 96.049088,805.000000 
z"/>
<path fill="#DEDCD1" opacity="1.000000" stroke="none" 
	d="
M899.167908,753.999512 
	C899.167847,676.533020 899.167664,599.566528 899.169678,522.600098 
	C899.169861,515.395020 899.176208,515.386292 906.139832,515.385193 
	C930.962341,515.381287 955.785522,515.476013 980.606689,515.295410 
	C984.872925,515.264404 986.328247,516.289795 986.323792,520.821472 
	C986.203857,643.267944 986.214233,765.714600 986.294189,888.161133 
	C986.296570,891.897705 985.551086,893.417053 981.373779,893.386169 
	C955.719727,893.196472 930.062927,893.204529 904.408630,893.376892 
	C900.184570,893.405212 899.081848,892.009583 899.093018,887.941162 
	C899.214661,843.460876 899.168701,798.980103 899.167908,753.999512 
z"/>
<path fill="#DDDBD0" opacity="1.000000" stroke="none" 
	d="
M899.048462,989.000000 
	C899.049133,983.502075 899.179993,978.499207 899.004639,973.507019 
	C898.887268,970.167786 899.949341,968.683594 903.533203,968.696472 
	C929.690796,968.790527 955.849060,968.787842 982.006714,968.695068 
	C985.314697,968.683350 986.330322,969.913208 986.288147,973.105530 
	C986.145081,983.933472 986.044006,994.767700 986.255554,1005.593140 
	C986.572754,1021.829651 973.596802,1036.776245 956.119934,1038.223633 
	C945.158264,1039.131348 933.869995,1038.170288 922.925476,1036.638794 
	C911.493164,1035.039185 900.526855,1022.016113 899.620789,1010.464722 
	C899.074829,1003.504211 899.216064,996.489807 899.048462,989.000000 
z"/>
<path fill="#C6C2B8" opacity="1.000000" stroke="none" 
	d="
M986.081177,952.868469 
	C986.576721,957.194336 985.078796,958.531738 981.057861,958.505310 
	C955.585327,958.337769 930.110596,958.342651 904.637939,958.498352 
	C900.500610,958.523621 899.044678,957.165955 899.084717,953.069519 
	C899.229553,938.252930 899.258057,923.432495 899.063538,908.617004 
	C899.009644,904.512207 900.657715,903.597229 904.393311,903.614319 
	C930.032898,903.731689 955.673706,903.741516 981.313110,903.602844 
	C985.028687,903.582764 986.203735,904.691895 986.156677,908.429138 
	C985.972168,923.078247 986.081482,937.731201 986.081177,952.868469 
z"/>
<path fill="#C6C1B7" opacity="1.000000" stroke="none" 
	d="
M976.926025,488.190186 
	C978.601501,492.035339 980.130615,495.529480 981.537170,499.072266 
	C982.718750,502.048401 982.685120,504.264709 978.445496,504.253906 
	C954.289612,504.192322 930.133484,504.228699 905.977539,504.182129 
	C904.906860,504.180054 903.837158,503.694489 902.064880,503.263306 
	C905.979553,493.908600 909.723572,484.971924 913.458801,476.031647 
	C915.947693,470.074829 918.140381,463.968079 921.064941,458.234131 
	C922.046753,456.309082 924.832947,454.186066 926.871216,454.105835 
	C937.350281,453.693542 947.858765,454.091888 958.347717,453.833893 
	C962.672302,453.727509 963.582581,456.713287 964.796875,459.541077 
	C968.838562,468.952850 972.759399,478.416473 976.926025,488.190186 
z"/>
<path fill="#232221" opacity="1.000000" stroke="none" 
	d="
M482.000000,592.144287 
	C581.822388,592.144409 681.144775,592.133606 780.467102,592.194519 
	C783.575439,592.196411 786.819580,592.510010 789.758728,593.441040 
	C793.881897,594.747070 796.373657,597.858154 796.424622,602.397644 
	C796.508789,609.894836 796.622986,617.396729 796.449463,624.890198 
	C796.315918,630.661377 791.823486,635.133545 786.042358,635.651123 
	C784.388367,635.799255 782.711548,635.702637 781.045227,635.702637 
	C610.897339,635.704102 440.749390,635.705688 270.601471,635.685852 
	C268.283722,635.685608 265.842499,635.830444 263.672180,635.187500 
	C257.945831,633.491150 255.371002,630.058044 255.146866,623.753357 
	C254.916107,617.262390 254.872772,610.747559 255.148026,604.260193 
	C255.497803,596.016235 260.044678,592.160767 269.023499,592.158325 
	C339.848999,592.139282 410.674500,592.145691 482.000000,592.144287 
z"/>
<path fill="#232120" opacity="1.000000" stroke="none" 
	d="
M723.000000,740.780762 
	C573.021240,740.780823 423.542480,740.781128 274.063721,740.778564 
	C271.730988,740.778503 269.383148,740.904907 267.068329,740.690979 
	C259.202209,739.964111 255.341904,735.959351 255.120590,728.093018 
	C254.947250,721.932190 254.909073,715.756287 255.127411,709.598328 
	C255.420456,701.333374 259.779816,697.247192 268.132172,697.246399 
	C440.107727,697.229919 612.083313,697.229492 784.058838,697.248657 
	C792.116577,697.249573 796.365662,701.452515 796.516907,709.460754 
	C796.623901,715.124634 796.234558,720.812866 796.612732,726.453552 
	C797.369873,737.746704 790.460693,740.805664 781.991333,740.788208 
	C766.993530,740.757385 751.995544,740.780640 736.997681,740.781128 
	C732.498474,740.781311 727.999207,740.781006 723.000000,740.780762 
z"/>
<path fill="#21201F" opacity="1.000000" stroke="none" 
	d="
M485.999939,530.343872 
	C413.833893,530.343628 342.167847,530.346069 270.501831,530.340027 
	C258.714539,530.338989 255.103958,526.694580 255.084366,514.825439 
	C255.075836,509.658905 254.945770,504.486450 255.143051,499.327118 
	C255.443924,491.458496 259.520935,487.513367 267.371460,487.179504 
	C268.702545,487.122894 270.037781,487.160797 271.371094,487.160797 
	C441.036224,487.160309 610.701355,487.156921 780.366516,487.190430 
	C783.171631,487.190979 786.064514,487.288879 788.762207,487.960571 
	C793.389343,489.112762 796.316223,492.152069 796.389648,497.157928 
	C796.502075,504.821136 796.595947,512.491943 796.375122,520.150208 
	C796.219116,525.561462 791.956604,529.722961 786.493042,530.248596 
	C784.344666,530.455322 782.163513,530.340759 779.997314,530.340820 
	C682.164856,530.343994 584.332397,530.343628 485.999939,530.343872 
z"/>
<path fill="#211F1F" opacity="1.000000" stroke="none" 
	d="
M413.000000,382.242615 
	C535.488953,382.242645 657.477966,382.239594 779.466919,382.260162 
	C782.291687,382.260620 785.141235,382.340210 787.935730,382.710907 
	C792.843140,383.361908 796.190491,386.732849 796.331360,391.643066 
	C796.560669,399.632996 796.568237,407.640350 796.314758,415.629120 
	C796.151855,420.764496 792.110962,424.554413 787.005310,425.014648 
	C785.516235,425.148865 784.007690,425.081909 782.508057,425.081940 
	C633.521545,425.084229 484.535004,425.084198 335.548462,425.083557 
	C334.381927,425.083557 333.214325,425.103455 332.049011,425.063385 
	C325.795258,424.848145 321.550354,421.110168 321.320190,414.946411 
	C321.040558,407.458893 321.059296,399.947449 321.298462,392.457489 
	C321.481476,386.726471 324.864258,383.320160 330.530029,382.600769 
	C332.833679,382.308258 335.179901,382.258942 337.506897,382.256805 
	C362.504608,382.233856 387.502289,382.242462 413.000000,382.242615 
z"/>
<path fill="#211F1F" opacity="1.000000" stroke="none" 
	d="
M423.000061,277.243164 
	C451.322479,277.244446 479.147675,277.465576 506.965546,277.110229 
	C515.112671,277.006195 520.924255,281.729706 520.176697,290.500458 
	C519.669128,296.455109 520.121643,302.488037 520.057800,308.485016 
	C519.979187,315.870880 516.147827,319.719116 508.646820,319.811096 
	C500.317963,319.913239 491.987091,319.855713 483.657074,319.855896 
	C412.684937,319.857605 341.711853,319.666718 270.741486,320.022644 
	C257.164764,320.090698 254.655167,313.819672 255.050934,303.899017 
	C255.236740,299.241455 255.116211,294.570465 255.087738,289.905823 
	C255.039688,282.033569 259.773163,277.088959 268.061279,277.127930 
	C319.539886,277.370026 371.020264,277.245789 423.000061,277.243164 
z"/>
<path fill="#1F1E1E" opacity="1.000000" stroke="none" 
	d="
M500.062134,817.197510 
	C500.056061,822.670166 500.143799,827.671082 500.022125,832.666809 
	C499.815460,841.151001 495.909393,845.176025 487.425171,845.241333 
	C470.264343,845.373352 453.101929,845.299744 435.940155,845.300659 
	C381.955475,845.303589 327.970764,845.302246 273.986084,845.299866 
	C271.653534,845.299744 269.317627,845.348267 266.989044,845.244629 
	C259.367676,844.905396 255.462799,841.139709 255.173218,833.443176 
	C254.941559,827.286804 254.946976,821.109924 255.145996,814.951782 
	C255.418793,806.511108 259.540283,802.646790 267.987579,802.645264 
	C340.633636,802.632202 413.280182,802.764954 485.925201,802.489807 
	C496.171722,802.451050 500.391052,808.039978 500.062134,817.197510 
z"/>
<path fill="#21201F" opacity="1.000000" stroke="none" 
	d="
M697.000000,897.909241 
	C725.831848,897.909546 754.163696,897.902710 782.495544,897.914185 
	C792.524658,897.918213 796.457458,901.756104 796.530334,911.633118 
	C796.573364,917.465698 796.614502,923.301025 796.486572,929.131409 
	C796.318726,936.781555 792.084473,941.036804 784.441956,941.443726 
	C783.278320,941.505798 782.109253,941.471313 780.942688,941.471313 
	C720.779175,941.472290 660.615662,941.475525 600.452148,941.469604 
	C587.894104,941.468323 584.153870,937.692688 584.129150,925.046570 
	C584.120056,920.380127 584.037048,915.711426 584.152161,911.047791 
	C584.372314,902.125244 588.617920,897.939453 597.504944,897.925049 
	C621.003662,897.886902 644.502502,897.910339 668.001282,897.909424 
	C677.500854,897.909119 687.000427,897.909302 697.000000,897.909241 
z"/>
<path fill="#2C2A28" opacity="1.000000" stroke="none" 
	d="
M785.567261,244.385666 
	C792.173401,259.193451 794.095337,274.187714 789.716675,289.473877 
	C784.135864,308.956757 772.311768,323.598328 753.799805,332.338745 
	C718.769836,348.878082 678.333313,332.361176 663.920593,296.560211 
	C653.401001,270.429535 660.687622,240.826950 683.057190,222.170364 
	C716.512878,194.267731 764.039673,204.032150 784.628357,242.767105 
	C784.861694,243.206238 785.163940,243.608780 785.567261,244.385666 
M738.854736,218.330109 
	C727.367065,214.841019 716.202759,216.315247 705.215332,220.519257 
	C683.685242,228.757065 671.977600,247.820953 670.011353,267.313599 
	C668.667114,280.639343 672.411743,292.789093 679.847107,304.028992 
	C697.737427,331.073242 738.885071,336.346283 762.399292,314.195221 
	C778.335632,299.182678 784.965088,281.079956 779.545776,259.275085 
	C774.222534,237.857010 760.700867,224.499802 738.854736,218.330109 
z"/>
<path fill="#DDDBD0" opacity="1.000000" stroke="none" 
	d="
M739.268066,218.380646 
	C760.700867,224.499802 774.222534,237.857010 779.545776,259.275085 
	C784.965088,281.079956 778.335632,299.182678 762.399292,314.195221 
	C738.885071,336.346283 697.737427,331.073242 679.847107,304.028992 
	C672.411743,292.789093 668.667114,280.639343 670.011353,267.313599 
	C671.977600,247.820953 683.685242,228.757065 705.215332,220.519257 
	C716.202759,216.315247 727.367065,214.841019 739.268066,218.380646 
z"/>
</svg>