<svg version="1.1" id="Layer_1" xmlns="http://www.w3.org/2000/svg" xmlns:xlink="http://www.w3.org/1999/xlink" x="0px" y="0px"
	 width="100%" viewBox="0 0 464 384" enable-background="new 0 0 464 384" xml:space="preserve">
<path fill="#000000" opacity="1.000000" stroke="none" 
	d="
M231.933670,304.984772 
	C287.847168,314.648010 353.884766,279.099548 365.716583,212.347382 
	C377.334259,146.803177 332.673828,85.559723 266.620544,77.066605 
	C215.939468,70.550034 167.593414,96.869377 145.595428,142.952042 
	C141.427292,151.683701 139.909653,152.628464 130.712738,152.217072 
	C125.546829,151.985992 124.999763,151.233261 126.748940,146.039673 
	C131.263779,132.634415 138.030716,120.423180 147.055328,109.564713 
	C177.126480,73.382919 216.007065,56.925789 262.653809,60.106838 
	C320.132812,64.026588 368.936798,108.007545 381.065582,164.263351 
	C396.033813,233.689056 352.474121,300.995728 285.120056,318.793304 
	C222.431534,335.358093 157.565506,304.706604 130.375671,245.907928 
	C128.703094,242.290955 127.451790,238.472275 126.128174,234.704010 
	C125.551125,233.061157 125.484314,231.538345 127.628288,230.621643 
	C133.335983,228.181168 141.120865,230.775345 143.785187,236.499481 
	C149.095230,247.907761 155.551392,258.584656 164.124420,267.801147 
	C182.481659,287.536224 204.544373,300.711884 231.933670,304.984772 
z"/>
<path fill="#000000" opacity="1.000000" stroke="none" 
	d="
M285.033051,206.869217 
	C292.649750,209.483246 299.902252,211.935287 307.129242,214.460281 
	C313.928589,216.835861 317.748230,221.740494 318.692627,228.793945 
	C319.312805,233.425781 319.365540,238.121155 318.536530,242.734802 
	C316.393280,254.662369 308.899261,261.135681 296.700348,261.181366 
	C266.546722,261.294281 236.391968,261.297516 206.238358,261.174408 
	C191.902466,261.115875 183.729309,252.714584 183.648376,238.289352 
	C183.619659,233.166000 182.982040,227.974289 185.208267,223.022278 
	C186.798935,219.484009 189.161530,216.952591 192.812729,215.559418 
	C205.113968,210.865662 217.698242,207.041412 230.298798,203.264633 
	C232.431076,202.625519 234.573654,202.755402 236.717880,203.262192 
	C246.765198,205.636856 256.735107,205.858856 266.820984,203.080154 
	C273.187775,201.326065 278.735687,205.343185 285.033051,206.869217 
z"/>
<path fill="#000000" opacity="1.000000" stroke="none" 
	d="
M238.292572,195.997498 
	C213.489594,186.824158 204.895065,156.959366 221.056427,136.100159 
	C230.365448,124.085136 246.934586,118.949425 262.437531,123.322449 
	C276.556763,127.305161 287.447083,140.244644 289.171967,155.087372 
	C291.023834,171.022675 283.496887,185.672806 269.983246,193.331894 
	C259.872559,199.062271 249.485168,199.462997 238.292572,195.997498 
z"/>
<path fill="#000000" opacity="1.000000" stroke="none" 
	d="
M169.864380,181.462463 
	C172.614319,179.470978 169.930191,178.598709 169.161865,177.772491 
	C165.079742,173.382874 160.600937,169.352997 156.636566,164.865433 
	C152.138138,159.773361 153.489944,153.597534 159.225235,151.393997 
	C162.608780,150.094009 165.570984,151.133804 167.957703,153.459518 
	C179.528625,164.734573 191.270187,175.843018 202.028458,187.926376 
	C203.928604,190.060562 204.099060,191.691757 202.000397,193.878571 
	C191.735794,204.574371 181.607376,215.400757 171.389587,226.141754 
	C170.134094,227.461502 168.720795,228.674103 167.226837,229.715820 
	C163.156693,232.553894 158.719925,232.273056 155.904816,229.137863 
	C152.959930,225.858109 153.043518,221.695938 156.608856,217.934586 
	C161.764297,212.495743 167.187302,207.311172 172.453644,201.976166 
	C173.337341,201.080963 174.640366,200.381729 174.553146,198.726303 
	C172.920654,197.562393 171.038559,198.069107 169.285965,198.066299 
	C141.626907,198.022171 113.967781,198.028992 86.308670,198.020172 
	C78.723518,198.017746 78.723518,198.011795 78.707924,190.684402 
	C78.688881,181.734665 78.688835,181.717758 87.584755,181.695648 
	C114.909096,181.627716 142.233475,181.573975 169.864380,181.462463 
z"/>
</svg>