<svg version="1.1" id="Layer_1" xmlns="http://www.w3.org/2000/svg" xmlns:xlink="http://www.w3.org/1999/xlink" x="0px" y="0px"
	 width="100%" viewBox="0 0 256 256" enable-background="new 0 0 256 256" xml:space="preserve">
<path fill="#FFFFFF" opacity="1.000000" stroke="none" 
	d="
M67.000000,1.000000 
	C130.279282,1.000000 193.558578,1.000000 256.918945,1.000000 
	C256.918945,86.333305 256.918945,171.666641 256.918945,257.000000 
	C234.899796,257.000000 212.918564,257.000000 190.601822,256.617676 
	C193.387634,255.504684 196.511047,254.782883 199.629898,254.041824 
	C218.624741,249.528519 231.925827,236.464661 244.921509,223.239990 
	C248.248581,219.854279 249.424698,214.990021 248.305542,209.389694 
	C246.773148,201.721588 241.867966,196.416489 236.865540,191.754700 
	C227.861130,183.363373 218.198395,175.451721 207.894501,168.747833 
	C198.356430,162.542191 187.526993,161.073441 177.627090,168.912979 
	C171.723526,173.587860 166.273209,178.837082 160.644012,183.856018 
	C153.329681,190.377396 147.009933,192.604095 137.966125,188.155609 
	C130.240891,184.355698 122.649391,179.483978 116.450043,173.566040 
	C106.728821,164.286057 97.865067,154.025131 89.322418,143.617981 
	C81.762772,134.408386 75.807602,124.219658 72.815315,112.314857 
	C70.682693,103.830200 75.678749,95.902435 80.366920,92.179642 
	C86.109016,87.619965 91.953621,83.135338 97.273239,78.109497 
	C106.895432,69.018700 107.071953,58.340881 102.778236,49.131840 
	C97.580620,37.984184 90.701469,27.614117 84.448105,16.967392 
	C80.286026,9.881191 74.728355,4.232290 67.000000,1.000000 
z"/>
<path fill="#030104" opacity="1.000000" stroke="none" 
	d="
M66.545891,1.000000 
	C74.728355,4.232290 80.286026,9.881191 84.448105,16.967392 
	C90.701469,27.614117 97.580620,37.984184 102.778236,49.131840 
	C107.071953,58.340881 106.895432,69.018700 97.273239,78.109497 
	C91.953621,83.135338 86.109016,87.619965 80.366920,92.179642 
	C75.678749,95.902435 70.682693,103.830200 72.815315,112.314857 
	C75.807602,124.219658 81.762772,134.408386 89.322418,143.617981 
	C97.865067,154.025131 106.728821,164.286057 116.450043,173.566040 
	C122.649391,179.483978 130.240891,184.355698 137.966125,188.155609 
	C147.009933,192.604095 153.329681,190.377396 160.644012,183.856018 
	C166.273209,178.837082 171.723526,173.587860 177.627090,168.912979 
	C187.526993,161.073441 198.356430,162.542191 207.894501,168.747833 
	C218.198395,175.451721 227.861130,183.363373 236.865540,191.754700 
	C241.867966,196.416489 246.773148,201.721588 248.305542,209.389694 
	C249.424698,214.990021 248.248581,219.854279 244.921509,223.239990 
	C231.925827,236.464661 218.624741,249.528519 199.629898,254.041824 
	C196.511047,254.782883 193.387634,255.504684 190.133163,256.617676 
	C181.312439,257.000000 172.624863,257.000000 163.330261,256.613525 
	C159.092651,255.489578 155.403503,254.964264 151.840866,253.980682 
	C125.896690,246.817978 104.525475,231.822189 85.412865,213.628876 
	C74.108353,202.868103 63.514324,191.192413 53.806431,178.970520 
	C44.201817,166.878662 35.133690,154.133347 27.578110,140.692169 
	C14.822043,117.999481 6.085116,93.791573 10.174105,67.060959 
	C11.517729,58.277393 14.004832,49.413357 17.568121,41.287319 
	C22.363878,30.350653 30.070339,21.190042 39.673592,13.863127 
	C45.391792,9.500360 51.220806,5.282825 57.000000,1.000000 
	C60.030594,1.000000 63.061188,1.000000 66.545891,1.000000 
z"/>
<path fill="#FFFFFF" opacity="1.000000" stroke="none" 
	d="
M56.531342,1.000000 
	C51.220806,5.282825 45.391792,9.500360 39.673592,13.863127 
	C30.070339,21.190042 22.363878,30.350653 17.568121,41.287319 
	C14.004832,49.413357 11.517729,58.277393 10.174105,67.060959 
	C6.085116,93.791573 14.822043,117.999481 27.578110,140.692169 
	C35.133690,154.133347 44.201817,166.878662 53.806431,178.970520 
	C63.514324,191.192413 74.108353,202.868103 85.412865,213.628876 
	C104.525475,231.822189 125.896690,246.817978 151.840866,253.980682 
	C155.403503,254.964264 159.092651,255.489578 162.861618,256.613525 
	C109.049866,257.000000 55.099731,257.000000 1.074800,257.000000 
	C1.074800,171.666687 1.074800,86.333351 1.074800,1.000000 
	C19.429916,1.000000 37.746300,1.000000 56.531342,1.000000 
z"/>
</svg>