<?xml version="1.0" ?><svg id="Layer_1" style="enable-background:new 0 0 250 250;" version="1.0" viewBox="0 0 250 250" xml:space="preserve" xmlns="http://www.w3.org/2000/svg" xmlns:xlink="http://www.w3.org/1999/xlink"><style type="text/css">
	.st0{fill-rule:evenodd;clip-rule:evenodd;fill:none;stroke:#000000;stroke-width:6;stroke-linecap:round;stroke-linejoin:round;}
	.st1{fill:none;stroke:#000000;stroke-width:6;stroke-linecap:round;stroke-linejoin:round;stroke-miterlimit:10;}
	.st2{fill:none;stroke:#ED1C24;stroke-miterlimit:10;}
	.st3{fill:none;stroke:#000000;stroke-width:2;stroke-linecap:round;stroke-linejoin:round;stroke-miterlimit:10;}
	.st4{stroke:#000000;stroke-width:3;stroke-linecap:round;stroke-linejoin:round;stroke-miterlimit:10;}
	.st5{stroke:#000000;stroke-width:6;stroke-linecap:round;stroke-linejoin:round;stroke-miterlimit:10;}
</style><path d="M233.7,158.6c-0.5-2.8-1.1-5.6-1.6-8.4c-0.6-3.2-1.3-6.6-1.9-9.8c-0.6-3.3-2.5-5.4-5.7-6.2c-4.3-1.1-9-2.3-14.3-3.8  c-0.5-1.6-0.9-3.3-1.3-5c-0.4-1.5-0.7-2.9-1.1-4.4c0-0.1,0-0.2,0-0.2c0,0,0-0.1,0.1-0.2c1.7-2.4,3.4-4.9,5.1-7.3c0.7-1,1.3-2,2-2.9  c2-2.9,1.2-5.4,0.5-6.7c-1.2-2.2-3.2-3.4-5.8-3.3c-0.5,0-0.9,0-1.4,0l-49.1,0.9c-0.1-0.7-0.1-1.4-0.2-2.1c-0.3-3.7-0.6-7.1-0.8-10.7  l0-0.2c-0.3-4-0.6-8.5-3.6-12.5c-0.2-0.3-0.4-0.5-0.5-0.8c1.7-0.4,3.8-1.2,4.6-3.1c1.1-2.7,2.8-6.7,1.2-11c-2.2-5.9-4.6-11.9-7-18  c-0.8-1.9-1.1-3.2-0.8-4.5c0.3-1.2,0.4-2.5,0.5-3.6c0-0.3,0-0.7,0.1-1c0.2-2.5-0.8-4.7-3-6c-2.4-1.5-4.9-3-7.3-4.5  c-4.4-2.8-8.8-5.5-13.3-8.2c-1.3-0.8-2.9-1.1-4.3-0.9c-5.1,0.7-10.4,1.5-15.7,2.3c-0.4,0.1-0.8,0.2-1.1,0.4L70.7,39.7L50.9,50.1  l-8.8,2c-0.8,0.2-1.5,0.7-1.9,1.4c-0.4,0.7-0.5,1.5-0.4,2.3c0.5,1.9,1.7,7.5,1.6,10.3c-0.2,3.5,6.7,13.1,13.7,22l-33-0.6  c-0.1,0-0.1,0-0.2,0c0,0-0.5,0-1.4,0.1c-1.6,0.1-2.9,1.5-2.8,3.1c0.5,12,0.1,21.2-1.1,24.1c-2,4.7,1.3,10,9.7,15.9  c2.2,1.5,3.2,4,2.7,6.4c-0.6,2.7-2,5.2-4.2,7.4c-3.8,3.8-5.7,7.5-5.7,11.2c0,5.5,4.1,9.6,7,12.5c1.2,1.2,2.4,2.4,2.8,3.2  c0.7,1.4,0.4,3.9-0.9,7.1c-0.4,1.1-0.2,2.3,0.6,3.2L40,193.8l6.1,7.5l5.6,30.7c0.3,1.4,1.4,2.4,2.9,2.5l46,1.3c0,0,0.1,0,0.1,0  c1.1,0,2.2-0.7,2.7-1.7c3-6.1,6.1-12.2,9.2-18.1c0.8-1.5,1.5-2.9,2.3-4.4c3.6-0.5,7.2-0.9,10.7-1.3l1.9-0.2c1.9-0.2,3.8-0.5,5.7-0.7  c4.8-0.6,9.7-1.2,14.5-1.7l1.1-0.1c4.8-0.5,9.8-1.1,14.6-1.3c3.8-0.2,7.6-0.1,11.4-0.1c1.1,0,2.2,0,3.3,0c0.6,0,1.3,0.1,1.9,0.3  c6.3,2.3,12.6,4.7,18.8,7.1l0.9,0.3c0.6,0.2,1.2,0.4,1.7,0.6c0.4,0.1,1.1,0.3,1.5,0.5c0,0.4,0,1,0,1.5c0,0.6-0.1,1.3-0.1,2  c0,3,1.5,5.2,4.2,6.3l1.2,0.4c2.2,0.8,4.4,1.7,6.6,2.4c2,0.7,4.2,0.4,5.8-0.9c1.6-1.2,2.6-3.2,2.5-5.3c0-0.9-0.1-1.7-0.2-2.5  c-0.1-0.7-0.1-1.4-0.2-2.1c0-0.9-0.1-1.7-0.2-2.5c-0.2-1.7-0.3-3.3,0-4.5c2.3-9.7,4.7-19.6,7-29.1c1.4-5.6,2.8-11.3,4.1-16.9  C234.1,161.8,233.9,159.9,233.7,158.6z"/></svg>