<?xml version="1.0" ?><svg viewBox="0 0 512 512" xmlns="http://www.w3.org/2000/svg"><g id="Payment_refund"><path d="M423.04,243.0581H401.3447V62.3965A32.6948,32.6948,0,0,0,368.65,29.7014H172.4228A32.6951,32.6951,0,0,0,139.728,62.3965v188.656a48.1962,48.1962,0,0,0-27.4917,74.9524A48.1868,48.1868,0,0,0,139.728,400.947v54.0139a32.6951,32.6951,0,0,0,32.6948,32.695H368.65a32.6948,32.6948,0,0,0,32.6948-32.695V406.5967H423.04a20.0456,20.0456,0,0,0,20.0225-20.0225V263.08A20.0452,20.0452,0,0,0,423.04,243.0581ZM151.3877,261.62a36.2449,36.2449,0,1,1-36.2451,36.2456A36.2863,36.2863,0,0,1,151.3877,261.62Zm-36.2451,92.5161a35.9845,35.9845,0,0,1,5.4878-19.1318,48.1448,48.1448,0,0,0,61.5146,0,36.2352,36.2352,0,1,1-67.0024,19.1318ZM293.418,467.4443H247.6553v-12H293.418Zm92.6875-40.2966a10,10,0,0,1-10,10H164.9673a10,10,0,0,1-10-10V402.2329a48.1847,48.1847,0,0,0,35.5718-76.228,48.1929,48.1929,0,0,0-35.5718-76.2383V90.21a10,10,0,0,1,10-10h64.0513a69.689,69.689,0,0,0-28.9493,54.8772l12.9961.3115a56.77,56.77,0,0,1,106.7691-25.49L307.501,107.167l-2.8213,12.69,27.1416,6.0332a6.4941,6.4941,0,0,0,7.5254-4.1421L348.7705,95.59,336.54,91.1841l-4.8252,13.3926a69.6594,69.6594,0,0,0-21.01-24.367h65.4009a10,10,0,0,1,10,10V243.0581H239.6338a20.0452,20.0452,0,0,0-20.0225,20.022V386.5742a20.0456,20.0456,0,0,0,20.0225,20.0225H386.1055Zm44.957-40.5735a8.0313,8.0313,0,0,1-8.0225,8.0225H239.6338a8.0314,8.0314,0,0,1-8.0225-8.0225V263.08a8.0312,8.0312,0,0,1,8.0225-8.022H423.04a8.0311,8.0311,0,0,1,8.0225,8.022Z"/><path d="M395.5889,271.99a16.716,16.716,0,0,0-8.86,2.52,23.806,23.806,0,0,1,0,28.75,16.7169,16.7169,0,0,0,8.86,2.52,16.895,16.895,0,1,0,0-33.79Z"/><circle cx="367.665" cy="288.8853" r="16.8945"/><rect height="12" width="39.4932" x="251.916" y="367.3848"/><rect height="12" width="92.3975" x="318.3603" y="367.3848"/><rect height="12" width="158.8418" x="251.916" y="343.1299"/><path d="M256.1705,274.82h17.9677a5.0811,5.0811,0,0,1,5.0811,5.0811v17.968a5.0811,5.0811,0,0,1-5.0811,5.0811H256.17a5.0811,5.0811,0,0,1-5.0811-5.0811V279.9014A5.0812,5.0812,0,0,1,256.1705,274.82Z"/><path d="M149.8516,300.3506h3.0937a3.1343,3.1343,0,0,1,0,6.2685H138.83v9h7.2412v5.2832h9v-5.4816a12.1285,12.1285,0,0,0-2.126-24.07h-3.0937a2.3067,2.3067,0,1,1,0-4.6133h14.0937v-9h-8.0576v-5.2832h-9v5.6907a11.3,11.3,0,0,0,2.9639,22.2058Z"/><path d="M265.667,210.375q.7574.0161,1.51.0161A69.8437,69.8437,0,0,0,336.9,142.1187l-12.9961-.2774a56.8268,56.8268,0,0,1-56.7315,55.55c-.4062,0-.8193-.0044-1.2285-.0132a56.67,56.67,0,0,1-48.7431-29.7707l12.3418,2.71,2.7871-12.6978-27.1563-5.9619a6.4979,6.4979,0,0,0-7.5156,4.1612l-9.3555,26.1821,12.2412,4.3745,4.7906-13.4045A69.6405,69.6405,0,0,0,265.667,210.375Z"/><path d="M261.9424,173.8215h12v-8.755a17.35,17.35,0,0,0-2.4658-34.5248h-4.6045a4.1289,4.1289,0,1,1,0-8.2578h20.9726v-12H275.1582v-8.559h-12v9.0078a16.12,16.12,0,0,0,3.7139,31.809h4.6045a5.36,5.36,0,0,1,0,10.7208H250.4717v12h11.4707Z"/></g></svg>