<?xml version="1.0" encoding="UTF-8"?>
<!-- Do not edit this file with editors other than draw.io -->
<!DOCTYPE svg PUBLIC "-//W3C//DTD SVG 1.1//EN" "http://www.w3.org/Graphics/SVG/1.1/DTD/svg11.dtd">
<svg xmlns="http://www.w3.org/2000/svg" xmlns:xlink="http://www.w3.org/1999/xlink" version="1.1" width="774px" height="681px" viewBox="-0.5 -0.5 774 681" content="&lt;mxfile host=&quot;app.diagrams.net&quot; modified=&quot;2024-05-13T06:15:00.431Z&quot; agent=&quot;Mozilla/5.0 (Windows NT 10.0; Win64; x64) AppleWebKit/537.36 (KHTML, like Gecko) Chrome/124.0.0.0 Safari/537.36&quot; etag=&quot;esEI9oXBJtsDQNpM71gV&quot; version=&quot;24.4.0&quot; type=&quot;device&quot;&gt;&#10;  &lt;diagram name=&quot;Page-1&quot; id=&quot;j-y_0zKWHS1HO6ruCxtu&quot;&gt;&#10;    &lt;mxGraphModel dx=&quot;1500&quot; dy=&quot;870&quot; grid=&quot;1&quot; gridSize=&quot;10&quot; guides=&quot;1&quot; tooltips=&quot;1&quot; connect=&quot;1&quot; arrows=&quot;1&quot; fold=&quot;1&quot; page=&quot;1&quot; pageScale=&quot;1&quot; pageWidth=&quot;827&quot; pageHeight=&quot;1169&quot; math=&quot;0&quot; shadow=&quot;0&quot;&gt;&#10;      &lt;root&gt;&#10;        &lt;mxCell id=&quot;0&quot; /&gt;&#10;        &lt;mxCell id=&quot;1&quot; parent=&quot;0&quot; /&gt;&#10;        &lt;mxCell id=&quot;mchhehF7gEEsD6Wy1nN9-1&quot; value=&quot;&quot; style=&quot;verticalLabelPosition=bottom;aspect=fixed;html=1;shape=mxgraph.salesforce.commerce;fillColor=none;strokeColor=#005700;fontColor=#ffffff;fontStyle=0&quot; vertex=&quot;1&quot; parent=&quot;1&quot;&gt;&#10;          &lt;mxGeometry width=&quot;772.73&quot; height=&quot;680&quot; as=&quot;geometry&quot; /&gt;&#10;        &lt;/mxCell&gt;&#10;      &lt;/root&gt;&#10;    &lt;/mxGraphModel&gt;&#10;  &lt;/diagram&gt;&#10;&lt;/mxfile&gt;&#10;"><defs/><g><g><path d="M 132.99 121.4 L 735.15 125.11 L 673.32 402.07 L 196.05 400.84 Z" fill="#70bf75" stroke="none" pointer-events="all"/><ellipse cx="602.85" cy="594.95" rx="52.55117419256377" ry="52.55117419256377" fill="#ffffff" stroke="none" pointer-events="all"/><ellipse cx="221.4" cy="594.3" rx="52.55117419256377" ry="52.55117419256377" fill="#ffffff" stroke="none" pointer-events="all"/><path d="M 30.79 0 C 23.04 0 15.62 3.08 10.15 8.55 C 4.67 14.02 1.6 21.45 1.6 29.19 C 1.6 36.93 4.67 44.35 10.15 49.83 C 15.62 55.3 23.04 58.38 30.79 58.38 L 94.37 58.38 L 186.36 510.42 C 155.42 524.31 133.63 555.5 133.63 591.36 C 133.63 639.97 173.66 680 222.26 680 C 270.88 680 310.9 639.97 310.9 591.36 C 310.9 580.7 308.98 570.45 305.46 560.94 L 522.15 560.56 C 518.54 570.17 516.56 580.55 516.56 591.36 C 516.56 639.97 556.59 680 605.2 680 C 653.8 680 693.84 639.97 693.84 591.36 C 693.84 580.44 691.81 569.96 688.13 560.26 L 708.42 560.22 C 716.16 560.21 723.58 557.12 729.04 551.63 C 734.51 546.15 737.57 538.72 737.55 530.98 C 737.54 523.24 734.45 515.82 728.97 510.36 C 723.48 504.89 716.06 501.83 708.31 501.84 L 244.34 502.68 L 228.93 426.89 L 678.65 426.89 C 692.32 426.89 704.17 417.39 707.14 404.04 L 769.21 125.14 C 771.13 116.5 769.03 107.46 763.49 100.55 C 757.95 93.64 749.58 89.62 740.73 89.62 L 160.31 89.62 L 146.84 23.37 C 144.06 9.77 132.11 0.01 118.23 0.01 Z M 172.18 147.99 L 704.34 147.99 L 655.25 368.51 L 217.06 368.51 Z M 222.27 561.08 C 239.33 561.08 252.53 574.28 252.53 591.35 C 252.53 608.41 239.33 621.61 222.27 621.61 C 205.21 621.61 192.01 608.41 192.01 591.35 C 192.01 574.29 205.21 561.08 222.27 561.08 Z M 605.2 561.08 C 622.26 561.08 635.47 574.28 635.47 591.35 C 635.47 608.41 622.26 621.61 605.2 621.61 C 588.14 621.61 574.94 608.41 574.94 591.35 C 574.94 574.29 588.14 561.08 605.2 561.08 Z" fill="#396547" stroke="none" pointer-events="all"/></g></g></svg>