<?xml version="1.0" ?><svg data-name="Layer 1" id="Layer_1" viewBox="0 0 64 64" xmlns="http://www.w3.org/2000/svg"><title/><path d="M41,53v6a2,2,0,0,1-2,2H25a2,2,0,0,1-2-2V53" style="fill:#abc4ff"/><path d="M43,49v0a7.757,7.757,0,0,1,2.356-5.505,19,19,0,1,0-26.736-.023A7.808,7.808,0,0,1,21,49h0" style="fill:#9bf6ff"/><path d="M30,49,23,27c2.248,0,2.248,2,4.5,2s2.249-2,4.5-2,2.251,2,4.5,2,2.252-2,4.5-2L34,49" style="fill:#fdffb6"/><rect height="4" rx="2" style="fill:#abc4ff" width="24" x="20" y="49"/><path d="M17.916,44.179a6.8,6.8,0,0,1,2.073,4.61A2.989,2.989,0,0,0,22,54v5a3,3,0,0,0,3,3H39a3,3,0,0,0,3-3V54a2.989,2.989,0,0,0,2.011-5.211A6.735,6.735,0,0,1,46.06,44.2,19.994,19.994,0,0,0,29.68,10.131,19.986,19.986,0,0,0,17.916,44.179ZM40,59a1,1,0,0,1-1,1H25a1,1,0,0,1-1-1V54H40Zm2-7H22a1,1,0,0,1,0-2H42a1,1,0,0,1,0,2ZM30.731,48,24.614,28.775a4.01,4.01,0,0,0,5.8-.027,2.055,2.055,0,0,1,3.172,0,4.015,4.015,0,0,0,5.805.022L33.269,48ZM14.115,27.934A18.041,18.041,0,0,1,29.9,12.118,17.989,17.989,0,0,1,44.654,42.78a8.768,8.768,0,0,0-2.591,5.226c-.021,0-.041-.006-.063-.006H35.368l6.585-20.7A1,1,0,0,0,41,26a4.052,4.052,0,0,0-2.916,1.252,2.058,2.058,0,0,1-3.174,0,4.017,4.017,0,0,0-5.829,0,2.054,2.054,0,0,1-3.169,0A4.04,4.04,0,0,0,23,26a1,1,0,0,0-.953,1.3L28.632,48H22c-.022,0-.042.006-.064.007a8.853,8.853,0,0,0-2.612-5.248A17.958,17.958,0,0,1,14.115,27.934Z"/><path d="M32,8a1,1,0,0,0,1-1V3a1,1,0,0,0-2,0V7A1,1,0,0,0,32,8Z"/><path d="M61,31H57a1,1,0,0,0,0,2h4a1,1,0,0,0,0-2Z"/><path d="M3,33H7a1,1,0,0,0,0-2H3a1,1,0,0,0,0,2Z"/><path d="M52.506,16.494a1,1,0,0,0,.707-.293l2.829-2.828a1,1,0,1,0-1.415-1.415L51.8,14.787a1,1,0,0,0,.707,1.707Z"/><path d="M9.373,50.536,12.2,47.707a1,1,0,0,0-1.414-1.414L7.958,49.122a1,1,0,0,0,1.415,1.414Z"/><path d="M53.213,46.293A1,1,0,0,0,51.8,47.707l2.828,2.829a1,1,0,1,0,1.415-1.414Z"/><path d="M10.787,16.2A1,1,0,0,0,12.2,14.787L9.373,11.958a1,1,0,0,0-1.415,1.415Z"/></svg>