<svg id="Layer_1" data-name="Layer 1" xmlns="http://www.w3.org/2000/svg" viewBox="0 0 296.81 145.67"><defs><style>.cls-1{fill:#2e3192;}.cls-2,.cls-4{fill:#231f20;}.cls-2,.cls-5{stroke:#231f20;stroke-miterlimit:10;stroke-width:0.5px;}.cls-3,.cls-5{fill:none;}</style></defs><path class="cls-1" d="M44.27,77.67c-5.46-1.44-10.8-3.06-15.48-4.68a7.54,7.54,0,0,0-2.52-.59C16.71,72,8.49,64.94,8.49,51.94s7.92-21.3,18.84-21.3S45.45,39.16,45.45,51.1c0,10.38-4.8,17-11.52,19.38v.23c4,1,8.4,2,11.82,2.58ZM39.93,51.34c0-8.1-4.2-16.44-12.78-16.44-8.82,0-13.14,8.16-13.08,16.92C14,60.4,18.75,68.14,26.91,68.14,35.27,68.14,39.93,60.57,39.93,51.34Z" transform="translate(-0.02 68)"/><path class="cls-2" d="M57.93,34.54a3.27,3.27,0,0,1-6.54,0,3.22,3.22,0,0,1,3.14-3.3h.16a3.13,3.13,0,0,1,3.24,3A1.41,1.41,0,0,1,57.93,34.54Zm-51.14,0a3.13,3.13,0,0,1-3,3.25H3.43A3.14,3.14,0,0,1,.27,34.66v-.12a3.22,3.22,0,0,1,3.14-3.3h.16a3.13,3.13,0,0,1,3.22,3A2.43,2.43,0,0,1,6.79,34.54ZM84.38,11.11a3.27,3.27,0,1,1-6.54,0A3.22,3.22,0,0,1,81,7.81h.16a3.13,3.13,0,0,1,3.24,3A1.41,1.41,0,0,1,84.38,11.11ZM33.66,7.84a3.27,3.27,0,1,1-6.54,0,3.22,3.22,0,0,1,3.14-3.3h.16a3.13,3.13,0,0,1,3.24,3A1.41,1.41,0,0,1,33.66,7.84ZM115,24.73a3.27,3.27,0,0,1-6.54,0,3.22,3.22,0,0,1,3.14-3.3h.16a3.13,3.13,0,0,1,3.24,3A1.41,1.41,0,0,1,115,24.73Zm34.85-10.35a3.27,3.27,0,1,1-6.54,0,3.22,3.22,0,0,1,3.14-3.3h.16a3.13,3.13,0,0,1,3.24,3,1.41,1.41,0,0,1,0,.29ZM5.48,31.82,28.19,10.3m5.47-1L53.59,33.08m3.74-.55,21-19.66m6-1.76L109.8,24.7m5.12,0,28.35-10.32" transform="translate(-0.02 68)"/><path class="cls-1" d="M120,70.41a26,26,0,0,1-10.7,1.92c-11.4,0-20-7.19-20-20.45,0-12.66,8.58-21.24,21.12-21.24,5,0,8.22,1.08,9.6,1.8l-1.26,4.26A19,19,0,0,0,110.57,35c-9.48,0-15.78,6.06-15.78,16.68,0,9.9,5.7,16.25,15.54,16.25a20.93,20.93,0,0,0,8.52-1.68Z" transform="translate(-0.02 68)"/><path class="cls-1" d="M158.61,50.56c0-3-.06-5.46-.24-7.86h4.68l.3,4.8h.12a10.69,10.69,0,0,1,9.6-5.46c4,0,10.26,2.4,10.26,12.36V71.73h-5.28V55c0-4.68-1.74-8.58-6.72-8.58a7.74,7.74,0,0,0-7.44,7.85V71.73h-5.28Z" transform="translate(-0.02 68)"/><path class="cls-1" d="M191.91,50.56c0-3-.06-5.46-.24-7.86h4.68l.3,4.8h.12a10.69,10.69,0,0,1,9.6-5.46c4,0,10.26,2.4,10.26,12.36V71.73h-5.28V55c0-4.68-1.74-8.58-6.72-8.58a7.74,7.74,0,0,0-7.44,7.85V71.73h-5.28Z" transform="translate(-0.02 68)"/><path class="cls-1" d="M228.15,58.18c.12,7.14,4.68,10.07,10,10.07a19,19,0,0,0,8-1.5l.9,3.78a23.53,23.53,0,0,1-9.66,1.8c-8.94,0-14.28-5.88-14.28-14.64S228.27,42,236.73,42c9.48,0,12,8.34,12,13.68a20.35,20.35,0,0,1-.18,2.46Zm15.48-3.78c.06-3.36-1.38-8.58-7.32-8.58-5.34,0-7.68,4.92-8.1,8.58Z" transform="translate(-0.02 68)"/><path class="cls-1" d="M276,70.65a19.46,19.46,0,0,1-8.34,1.68c-8.76,0-14.46-5.93-14.46-14.81s6.1-15.42,15.6-15.42a17.55,17.55,0,0,1,7.32,1.5l-1.2,4.08a12.28,12.28,0,0,0-6.12-1.38c-6.66,0-10.26,4.92-10.26,11,0,6.72,4.32,10.87,10.08,10.87a14.82,14.82,0,0,0,6.48-1.45Z" transform="translate(-0.02 68)"/><path class="cls-1" d="M289.27,34.36V42.7h7.56v4h-7.56V62.38c0,3.6,1,5.64,4,5.64a11.71,11.71,0,0,0,3.06-.37l.24,4a12.84,12.84,0,0,1-4.68.72,7.3,7.3,0,0,1-5.7-2.22c-1.5-1.55-2-4.13-2-7.55V46.72h-4.5v-4h4.5v-7Z" transform="translate(-0.02 68)"/><line class="cls-3" x1="213.94" y1="14.52" x2="213.85"/><path class="cls-4" d="M137,55.48a1.19,1.19,0,0,1-1.13,1.26h-.16a1.22,1.22,0,0,1-1.23-1.21v-.05a1.25,1.25,0,0,1,1.21-1.29h.06A1.21,1.21,0,0,1,137,55.36Z" transform="translate(-0.02 68)"/><path class="cls-4" d="M137,47.94a1.19,1.19,0,0,1-1.13,1.26h-.16A1.22,1.22,0,0,1,134.43,48v-.05a1.24,1.24,0,0,1,1.2-1.28h.07A1.21,1.21,0,0,1,137,47.83Z" transform="translate(-0.02 68)"/><path class="cls-4" d="M137,63a1.2,1.2,0,0,1-1.12,1.27h-.17a1.22,1.22,0,0,1-1.23-1.21V63a1.24,1.24,0,0,1,1.2-1.28h.07A1.21,1.21,0,0,1,137,62.92Z" transform="translate(-0.02 68)"/><path class="cls-4" d="M129.27,55.71a1.27,1.27,0,0,1-2.53,0A1.25,1.25,0,0,1,128,54.43H128a1.22,1.22,0,0,1,1.25,1.19Z" transform="translate(-0.02 68)"/><path class="cls-4" d="M144.65,55.45a1.27,1.27,0,1,1-2.53.23.88.88,0,0,1,0-.23,1.25,1.25,0,0,1,1.22-1.28h.06a1.22,1.22,0,0,1,1.25,1.19Z" transform="translate(-0.02 68)"/><path class="cls-4" d="M131.61,51a1.27,1.27,0,0,1-2.53,0,1.25,1.25,0,0,1,1.21-1.29h.07a1.22,1.22,0,0,1,1.25,1.19Z" transform="translate(-0.02 68)"/><path class="cls-4" d="M131.79,61a1.27,1.27,0,0,1-2.53,0,1.25,1.25,0,0,1,1.21-1.29h.06a1.23,1.23,0,0,1,1.26,1.2Z" transform="translate(-0.02 68)"/><path class="cls-4" d="M142.12,61.14A1.19,1.19,0,0,1,141,62.4h-.16a1.22,1.22,0,0,1-1.23-1.21v0a1.25,1.25,0,0,1,1.21-1.29h.06A1.21,1.21,0,0,1,142.12,61Z" transform="translate(-0.02 68)"/><path class="cls-4" d="M142.12,49.94A1.19,1.19,0,0,1,141,51.2h-.16A1.22,1.22,0,0,1,139.6,50v-.05a1.24,1.24,0,0,1,1.2-1.28h.07a1.21,1.21,0,0,1,1.25,1.17Z" transform="translate(-0.02 68)"/><path class="cls-4" d="M130.52,42.8a1.21,1.21,0,0,1-1.14,1.26h-.11A1.22,1.22,0,0,1,128,42.85V42.8a1.24,1.24,0,0,1,1.2-1.28h0a1.21,1.21,0,0,1,1.25,1.17Z" transform="translate(-0.02 68)"/><path class="cls-4" d="M123.19,51a1.27,1.27,0,0,1-2.53,0,1.25,1.25,0,0,1,1.21-1.29h.07a1.22,1.22,0,0,1,1.25,1.19Z" transform="translate(-0.02 68)"/><path class="cls-4" d="M123.76,61.71a1.27,1.27,0,0,1-2.53,0,1.25,1.25,0,0,1,1.21-1.29h.06a1.22,1.22,0,0,1,1.26,1.18Z" transform="translate(-0.02 68)"/><path class="cls-4" d="M131.61,69.34a1.27,1.27,0,0,1-2.53,0,1.25,1.25,0,0,1,1.22-1.28h.06a1.22,1.22,0,0,1,1.25,1.19Z" transform="translate(-0.02 68)"/><path class="cls-4" d="M142.12,70.14A1.19,1.19,0,0,1,141,71.4h-.16a1.22,1.22,0,0,1-1.23-1.21v0a1.24,1.24,0,0,1,1.2-1.28h.07A1.21,1.21,0,0,1,142.12,70Z" transform="translate(-0.02 68)"/><path class="cls-4" d="M151.27,61.76A1.19,1.19,0,0,1,150.14,63H150a1.22,1.22,0,0,1-1.23-1.21v-.05A1.25,1.25,0,0,1,150,60.47H150a1.21,1.21,0,0,1,1.25,1.17Z" transform="translate(-0.02 68)"/><path class="cls-4" d="M151.27,49.2a1.19,1.19,0,0,1-1.13,1.26H150a1.22,1.22,0,0,1-1.23-1.21v0A1.25,1.25,0,0,1,150,47.94a1.21,1.21,0,0,1,1.3,1.12Z" transform="translate(-0.02 68)"/><path class="cls-4" d="M142.71,42.8a1.19,1.19,0,0,1-1.13,1.26h-.16a1.22,1.22,0,0,1-1.23-1.21V42.8a1.24,1.24,0,0,1,1.2-1.28h.07a1.21,1.21,0,0,1,1.25,1.17Z" transform="translate(-0.02 68)"/><line class="cls-5" x1="135.64" y1="117.19" x2="135.68" y2="122.91"/><line class="cls-5" x1="130.7" y1="119.24" x2="135.66" y2="123.7"/><line class="cls-5" x1="129.24" y1="123.72" x2="135.66" y2="123.7"/><line class="cls-5" x1="140.17" y1="118.46" x2="136.31" y2="123.45"/><line class="cls-5" x1="131.01" y1="128.26" x2="135.66" y2="124.16"/><line class="cls-5" x1="135.68" y1="130.4" x2="135.64" y2="124.74"/><line class="cls-5" x1="140.85" y1="128.48" x2="136.69" y2="124.28"/><line class="cls-3" x1="143.37" y1="123.45" x2="136.94" y2="123.48"/><line class="cls-5" x1="129.58" y1="110.79" x2="135.66" y2="123.7"/><line class="cls-5" x1="122.48" y1="119.24" x2="136.31" y2="123.45"/><line class="cls-5" x1="123.17" y1="129.36" x2="135.66" y2="123.7"/><line class="cls-5" x1="130.51" y1="136.86" x2="135.66" y2="124.16"/><line class="cls-5" x1="140.86" y1="136.86" x2="135.66" y2="124.16"/><line class="cls-5" x1="149.33" y1="129.75" x2="136.31" y2="123.45"/><line class="cls-5" x1="149.95" y1="117.71" x2="136.31" y2="123.45"/><line class="cls-5" x1="140.85" y1="111.38" x2="135.68" y2="122.91"/><rect class="cls-1" x="52.1" y="110.65" width="5.09" height="28.47"/></svg>