<svg id="Layer_1" data-name="Layer 1" xmlns="http://www.w3.org/2000/svg" viewBox="0 0 374.23 145.68"><defs><style>.cls-1{fill:#2e3192;}.cls-2,.cls-4{fill:#231f20;}.cls-2{stroke:#231f20;stroke-miterlimit:10;stroke-width:0.5px;}.cls-3{fill:none;}</style></defs><path class="cls-1" d="M46,90.73c-5.46-1.44-10.8-3.06-15.48-4.68A7.72,7.72,0,0,0,28,85.46C18.44,85.09,10.22,78,10.22,65s7.92-21.3,18.84-21.3,18.12,8.52,18.12,20.46c0,10.38-4.8,17-11.52,19.38v.23c4,1,8.4,2,11.82,2.58ZM41.66,64.4c0-8.1-4.2-16.44-12.78-16.44-8.82,0-13.14,8.16-13.08,16.92-.06,8.58,4.68,16.32,12.84,16.32C37,81.2,41.66,73.63,41.66,64.4Z" transform="translate(-1.73 54.94)"/><path class="cls-2" d="M59.66,47.6a3.27,3.27,0,0,1-6.54,0,3.22,3.22,0,0,1,3.3-3.3A3.13,3.13,0,0,1,59.66,47.6Zm-51.14,0a3.12,3.12,0,0,1-3.36,3.24A3.14,3.14,0,0,1,2,47.6a3.22,3.22,0,0,1,3.3-3.3A3.13,3.13,0,0,1,8.52,47.6ZM86.11,24.17a3.27,3.27,0,0,1-6.54,0,3.22,3.22,0,0,1,3.3-3.3A3.13,3.13,0,0,1,86.11,24.17ZM35.39,20.9a3.27,3.27,0,0,1-6.54,0,3.22,3.22,0,0,1,3.3-3.3A3.13,3.13,0,0,1,35.39,20.9ZM116.7,37.79a3.27,3.27,0,0,1-6.54,0,3.22,3.22,0,0,1,3.3-3.3A3.13,3.13,0,0,1,116.7,37.79Zm34.85-10.35a3.27,3.27,0,0,1-6.54,0,3.22,3.22,0,0,1,3.3-3.3A3.13,3.13,0,0,1,151.55,27.44ZM7.21,44.88,29.92,23.36m5.47-1L55.32,46.14m3.74-.55,21-19.66m6-1.76,25.47,13.59m5.12,0L145,27.44" transform="translate(-1.73 54.94)"/><path class="cls-1" d="M121.7,83.47A25.91,25.91,0,0,1,111,85.39c-11.4,0-20-7.19-20-20.45,0-12.66,8.58-21.24,21.12-21.24,5,0,8.22,1.08,9.6,1.8l-1.26,4.26a19,19,0,0,0-8.16-1.68c-9.48,0-15.78,6.06-15.78,16.68,0,9.9,5.7,16.25,15.54,16.25a20.89,20.89,0,0,0,8.52-1.68Z" transform="translate(-1.73 54.94)"/><path class="cls-1" d="M153.68,70c0,10.73-7.44,15.42-14.46,15.42-7.86,0-13.92-5.76-13.92-14.94,0-9.72,6.36-15.42,14.4-15.42C148,55.1,153.68,61.16,153.68,70Zm-23,.29c0,6.37,3.66,11.17,8.82,11.17s8.82-4.75,8.82-11.29c0-4.91-2.46-11.15-8.7-11.15S130.64,64.82,130.64,70.33Z" transform="translate(-1.73 54.94)"/><path class="cls-1" d="M160.34,63.62c0-3-.06-5.46-.24-7.86h4.68l.3,4.8h.12a10.68,10.68,0,0,1,9.6-5.46c4,0,10.26,2.4,10.26,12.36V84.79h-5.28V68.06c0-4.68-1.74-8.58-6.72-8.58a7.74,7.74,0,0,0-7.44,7.85V84.79h-5.28Z" transform="translate(-1.73 54.94)"/><path class="cls-1" d="M193.64,63.62c0-3-.06-5.46-.24-7.86h4.68l.3,4.8h.12a10.68,10.68,0,0,1,9.6-5.46c4,0,10.26,2.4,10.26,12.36V84.79h-5.28V68.06c0-4.68-1.74-8.58-6.72-8.58a7.74,7.74,0,0,0-7.44,7.85V84.79h-5.28Z" transform="translate(-1.73 54.94)"/><path class="cls-1" d="M229.88,71.24c.12,7.14,4.68,10.07,10,10.07a18.94,18.94,0,0,0,8-1.5l.9,3.78a23.52,23.52,0,0,1-9.66,1.8c-8.94,0-14.28-5.88-14.28-14.64S230,55.1,238.46,55.1c9.48,0,12,8.34,12,13.68a19.91,19.91,0,0,1-.18,2.46Zm15.48-3.78c.06-3.36-1.38-8.58-7.32-8.58-5.34,0-7.68,4.92-8.1,8.58Z" transform="translate(-1.73 54.94)"/><path class="cls-1" d="M277.7,83.71a19.45,19.45,0,0,1-8.34,1.68c-8.76,0-14.46-5.93-14.46-14.81S261,55.16,270.5,55.16a17.65,17.65,0,0,1,7.32,1.5l-1.2,4.08a12.24,12.24,0,0,0-6.12-1.38c-6.66,0-10.26,4.92-10.26,11,0,6.72,4.32,10.87,10.08,10.87a14.84,14.84,0,0,0,6.48-1.45Z" transform="translate(-1.73 54.94)"/><path class="cls-1" d="M291,47.42v8.34h7.56v4H291V75.44c0,3.6,1,5.64,4,5.64a11.66,11.66,0,0,0,3.06-.37l.24,4a12.93,12.93,0,0,1-4.68.72,7.32,7.32,0,0,1-5.7-2.22c-1.5-1.55-2-4.13-2-7.55V59.78h-4.5v-4h4.5v-7Z" transform="translate(-1.73 54.94)"/><line class="cls-3" x1="213.96" y1="14.52" x2="213.87"/><path class="cls-4" d="M347,47.73a2.57,2.57,0,1,1-5.13,0,2.53,2.53,0,0,1,2.59-2.61A2.47,2.47,0,0,1,347,47.73Z" transform="translate(-1.73 54.94)"/><path class="cls-4" d="M347,32.38a2.57,2.57,0,0,1-5.13,0,2.54,2.54,0,0,1,2.59-2.62A2.47,2.47,0,0,1,347,32.38Z" transform="translate(-1.73 54.94)"/><path class="cls-4" d="M347,63.09a2.57,2.57,0,1,1-5.13,0,2.53,2.53,0,0,1,2.59-2.61A2.47,2.47,0,0,1,347,63.09Z" transform="translate(-1.73 54.94)"/><path class="cls-4" d="M331.31,48.21a2.57,2.57,0,0,1-5.13,0,2.54,2.54,0,0,1,2.59-2.62A2.47,2.47,0,0,1,331.31,48.21Z" transform="translate(-1.73 54.94)"/><path class="cls-4" d="M362.59,47.69a2.57,2.57,0,0,1-5.13,0,2.54,2.54,0,0,1,2.59-2.62A2.47,2.47,0,0,1,362.59,47.69Z" transform="translate(-1.73 54.94)"/><path class="cls-4" d="M336.09,38.61a2.57,2.57,0,1,1-5.14,0A2.54,2.54,0,0,1,333.54,36,2.47,2.47,0,0,1,336.09,38.61Z" transform="translate(-1.73 54.94)"/><path class="cls-4" d="M336.44,58.94a2.57,2.57,0,0,1-5.13,0,2.54,2.54,0,0,1,2.59-2.62A2.48,2.48,0,0,1,336.44,58.94Z" transform="translate(-1.73 54.94)"/><path class="cls-4" d="M357.45,59.23a2.45,2.45,0,0,1-2.63,2.57,2.48,2.48,0,0,1-2.5-2.57,2.53,2.53,0,0,1,2.59-2.61A2.46,2.46,0,0,1,357.45,59.23Z" transform="translate(-1.73 54.94)"/><path class="cls-4" d="M357.45,36.54a2.45,2.45,0,0,1-2.63,2.57,2.48,2.48,0,0,1-2.5-2.57,2.53,2.53,0,0,1,2.59-2.61A2.46,2.46,0,0,1,357.45,36.54Z" transform="translate(-1.73 54.94)"/><path class="cls-4" d="M333.88,22a2.57,2.57,0,0,1-5.14,0,2.55,2.55,0,0,1,2.59-2.62A2.48,2.48,0,0,1,333.88,22Z" transform="translate(-1.73 54.94)"/><path class="cls-4" d="M319,38.61a2.57,2.57,0,1,1-5.13,0A2.53,2.53,0,0,1,316.43,36,2.47,2.47,0,0,1,319,38.61Z" transform="translate(-1.73 54.94)"/><path class="cls-4" d="M320.12,60.4a2.57,2.57,0,0,1-5.13,0,2.54,2.54,0,0,1,2.59-2.62A2.47,2.47,0,0,1,320.12,60.4Z" transform="translate(-1.73 54.94)"/><path class="cls-4" d="M336.09,75.91a2.57,2.57,0,1,1-5.14,0,2.54,2.54,0,0,1,2.59-2.61A2.47,2.47,0,0,1,336.09,75.91Z" transform="translate(-1.73 54.94)"/><path class="cls-4" d="M357.45,77.54a2.45,2.45,0,0,1-2.63,2.56,2.48,2.48,0,0,1-2.5-2.56,2.54,2.54,0,0,1,2.59-2.62A2.47,2.47,0,0,1,357.45,77.54Z" transform="translate(-1.73 54.94)"/><path class="cls-4" d="M376,60.5a2.57,2.57,0,1,1-5.13,0,2.53,2.53,0,0,1,2.59-2.61A2.47,2.47,0,0,1,376,60.5Z" transform="translate(-1.73 54.94)"/><path class="cls-4" d="M376,35a2.57,2.57,0,0,1-5.13,0,2.54,2.54,0,0,1,2.59-2.62A2.47,2.47,0,0,1,376,35Z" transform="translate(-1.73 54.94)"/><path class="cls-4" d="M358.65,22a2.57,2.57,0,0,1-5.13,0,2.54,2.54,0,0,1,2.59-2.62A2.48,2.48,0,0,1,358.65,22Z" transform="translate(-1.73 54.94)"/><line class="cls-2" x1="342.59" y1="89.89" x2="342.66" y2="101.51"/><line class="cls-2" x1="332.53" y1="94.05" x2="342.62" y2="103.13"/><line class="cls-2" x1="329.58" y1="103.15" x2="342.62" y2="103.13"/><line class="cls-2" x1="351.79" y1="92.48" x2="343.95" y2="102.61"/><line class="cls-2" x1="333.17" y1="112.39" x2="342.62" y2="104.06"/><line class="cls-2" x1="342.66" y1="116.74" x2="342.59" y2="105.24"/><line class="cls-2" x1="353.16" y1="112.83" x2="344.72" y2="104.29"/><line class="cls-4" x1="358.3" y1="102.61" x2="345.22" y2="102.68"/><line class="cls-2" x1="330.26" y1="76.89" x2="342.62" y2="103.13"/><line class="cls-2" x1="315.83" y1="94.05" x2="343.95" y2="102.61"/><line class="cls-2" x1="317.25" y1="114.63" x2="342.62" y2="103.13"/><line class="cls-2" x1="332.15" y1="129.87" x2="342.62" y2="104.06"/><line class="cls-2" x1="353.19" y1="129.87" x2="342.62" y2="104.06"/><line class="cls-2" x1="370.42" y1="115.42" x2="343.95" y2="102.61"/><line class="cls-2" x1="371.66" y1="90.94" x2="343.95" y2="102.61"/><line class="cls-2" x1="353.16" y1="78.09" x2="342.66" y2="101.51"/><rect class="cls-1" x="52.12" y="110.65" width="5.09" height="28.47"/></svg>