<?xml version="1.0" ?><svg data-name="Your Icons" id="Your_Icons" viewBox="0 0 48 48" xmlns="http://www.w3.org/2000/svg"><title/><path d="M39.28,18l0,0,1.57-3.2a3,3,0,0,0-1.38-4L29.7,6.27A2.86,2.86,0,0,0,26,7.4L23.83,11,21.64,7.4A2.91,2.91,0,0,0,19.17,6a2.87,2.87,0,0,0-1.2.27L8.24,10.82a3,3,0,0,0-1.39,4L8.43,18l0,0L6.51,21.39a4,4,0,0,0,1.55,5.45l.33.18V28.3a8,8,0,0,0,0,11.42A8,8,0,0,0,14,42a7.94,7.94,0,0,0,4.73-1.56l2,.9a7.59,7.59,0,0,0,6.19,0l10-4.49a4,4,0,0,0,2.32-3.62V26.94l1.12-.61a3,3,0,0,0,1.22-4.12Zm-15.46,7.9h0Zm1-.52V13.48l12.06,5.76Zm1-13.81,1.91-3.15A.88.88,0,0,1,28.49,8a.86.86,0,0,1,.36.08l9.74,4.55a.94.94,0,0,1,.48.54A1.06,1.06,0,0,1,39,14l-1.63,3.3L25.83,11.74ZM8.6,13.17a.94.94,0,0,1,.48-.54l9.74-4.55A.85.85,0,0,1,19.17,8a.88.88,0,0,1,.76.44l1.9,3.15v.15L10.28,17.26,8.65,14A1,1,0,0,1,8.6,13.17Zm14.23.31V25.41L10.77,19.24ZM8.26,22.36l.94-1.68,12.63,6.46v.29l-.91,1.88a2.39,2.39,0,0,1-.21.34v0a8.58,8.58,0,0,0-1.23-1.46l-.07-.06c-.23-.21-.46-.4-.7-.58l0,0a7.61,7.61,0,0,0-1.7-.94h0a5.88,5.88,0,0,0-.84-.27l-.18-.05a6,6,0,0,0-.74-.14l-.22,0A7.46,7.46,0,0,0,14,26a7.88,7.88,0,0,0-1.2.1h-.13a8.34,8.34,0,0,0-1.12.28l-.08,0L9,25.08a1.9,1.9,0,0,1-.94-1.17A2,2,0,0,1,8.26,22.36ZM9.8,38.3A6,6,0,0,1,8,34a5.9,5.9,0,0,1,.49-2.36l.18-.4L8.81,31c.08-.14.17-.27.26-.4l.16-.23c.1-.13.21-.26.32-.38l.17-.18a4.35,4.35,0,0,1,.55-.5l0,0a7.13,7.13,0,0,1,.67-.45l.29-.16a6.43,6.43,0,0,1,.71-.32l.23-.07c.21-.06.43-.12.65-.16l.26-.05A6.54,6.54,0,0,1,14,28a6.69,6.69,0,0,1,.9.07l.18,0a5.54,5.54,0,0,1,.8.21l.2.07c.22.08.44.18.65.28l.18.1c.21.12.41.25.6.38l.22.17a6.41,6.41,0,0,1,.55.49l.17.19a4.94,4.94,0,0,1,.36.44,6.12,6.12,0,0,1,.43.69c0,.07.09.14.13.22a6.69,6.69,0,0,1,.39,1,5.62,5.62,0,0,1,.16.71l0,.19A6.33,6.33,0,0,1,20,34a5.16,5.16,0,0,1-.06.79l0,.2a6.58,6.58,0,0,1-.15.67s0,.06,0,.09a7.46,7.46,0,0,1-.27.71l-.09.17a4.68,4.68,0,0,1-.3.54l-.08.14a5.9,5.9,0,0,1-.44.58l-.13.15c-.13.14-.27.27-.41.4l-.15.14c-.18.15-.37.29-.57.43l-.16.1-.52.28A5.9,5.9,0,0,1,14,40,6,6,0,0,1,9.8,38.3ZM20.28,39l0-.05a8.21,8.21,0,0,0,1.19-2.15l.06-.17c.05-.15.09-.3.14-.45s0-.18.07-.28.06-.26.08-.39,0-.27.06-.4,0-.21,0-.32A6,6,0,0,0,22,34a8.45,8.45,0,0,0-.07-1c0-.09,0-.17,0-.25a6.89,6.89,0,0,0-.26-1.13,4,4,0,0,0,1.15-1.41l0-.12V39.9a5.32,5.32,0,0,1-1.27-.39Zm17-5.72A1.94,1.94,0,0,1,36.14,35l-10,4.49a5.26,5.26,0,0,1-1.28.39V30.07a4,4,0,0,0,3.31,2.31h.29a3.71,3.71,0,0,0,1.85-.49l7-3.83ZM40,24a1,1,0,0,1-.47.57h-.05L29.27,30.14a1.75,1.75,0,0,1-.86.22,1.84,1.84,0,0,1-1.66-1.06l-.92-1.87v-.29l12.64-6.46,1.4,2.51A1.06,1.06,0,0,1,40,24Z"/><path d="M16.5,35a1,1,0,0,0,0-2H15V31.5a1,1,0,0,0-2,0V33H11.5a1,1,0,0,0,0,2H13v1.5a1,1,0,0,0,2,0V35Z"/></svg>