<?xml version="1.0" ?><svg xmlns="http://www.w3.org/2000/svg" xmlns:xlink="http://www.w3.org/1999/xlink" version="1.1" id="Layer_1" viewBox="0 0 100 100" style="enable-background:new 0 0 100 100;" xml:space="preserve"><style type="text/css">
	.st0{fill:#D5FFA2;}
	.st1{fill:#333333;}
</style><g><path class="st0" d="M51.6,45.6h25.5c1.7,0,3-1.4,3-3V23.1c0-1.7-1.4-3-3-3H51.6c-1.7,0-3,1.4-3,3v19.5   C48.6,44.2,49.9,45.6,51.6,45.6z"/><g><path class="st1" d="M34.1,46.2l-4,4l-1.6-1.6c-0.4-0.4-1.1-0.4-1.5,0c-0.4,0.4-0.4,1.1,0,1.5l2.4,2.4c0.2,0.2,0.5,0.3,0.8,0.3    s0.6-0.1,0.8-0.3l4.8-4.8c0.4-0.4,0.4-1.1,0-1.5C35.2,45.8,34.6,45.8,34.1,46.2z"/><path class="st1" d="M39.9,50.4h8.7c0.6,0,1.1-0.5,1.1-1.1s-0.5-1.1-1.1-1.1h-8.7c-0.6,0-1.1,0.5-1.1,1.1S39.3,50.4,39.9,50.4z"/><path class="st1" d="M34.1,55.8l-4,4l-1.6-1.6c-0.4-0.4-1.1-0.4-1.5,0c-0.4,0.4-0.4,1.1,0,1.5l2.4,2.4c0.2,0.2,0.5,0.3,0.8,0.3    s0.6-0.1,0.8-0.3l4.8-4.8c0.4-0.4,0.4-1.1,0-1.5C35.2,55.4,34.6,55.4,34.1,55.8z"/><path class="st1" d="M39.9,60.1h8.7c0.6,0,1.1-0.5,1.1-1.1s-0.5-1.1-1.1-1.1h-8.7c-0.6,0-1.1,0.5-1.1,1.1S39.3,60.1,39.9,60.1z"/><path class="st1" d="M34.1,65.5l-4,4l-1.6-1.6c-0.4-0.4-1.1-0.4-1.5,0c-0.4,0.4-0.4,1.1,0,1.5l2.4,2.4c0.2,0.2,0.5,0.3,0.8,0.3    s0.6-0.1,0.8-0.3l4.8-4.8c0.4-0.4,0.4-1.1,0-1.5C35.2,65,34.6,65,34.1,65.5z"/><path class="st1" d="M43,67.5h-3.1c-0.6,0-1.1,0.5-1.1,1.1s0.5,1.1,1.1,1.1H43c0.6,0,1.1-0.5,1.1-1.1S43.6,67.5,43,67.5z"/><path class="st1" d="M56.4,71.2C56.4,71.2,56.4,71.1,56.4,71.2c0-0.2,0.1-0.3,0.1-0.3c0,0,0,0,0-0.1V34.3c0-0.6-0.5-1.1-1.1-1.1    h-3v-1.2c0-0.6-0.5-1.1-1.1-1.1H25c-0.6,0-1.1,0.5-1.1,1.1v1.2h-3c-0.6,0-1.1,0.5-1.1,1.1v6.4v38.1c0,0.6,0.5,1.1,1.1,1.1h26.3    c0.1,0,0.3,0,0.4-0.1c0.1-0.1,0.2-0.1,0.4-0.2l8.1-8.1c0,0,0,0,0,0C56.2,71.4,56.3,71.3,56.4,71.2C56.3,71.2,56.4,71.2,56.4,71.2z     M48.3,76.3v-4.4h4.4L48.3,76.3z M26.1,33.2h24.2v1.2v1.2H26.1v-1.2V33.2z M23.9,35.4v1.2c0,0.6,0.5,1.1,1.1,1.1h26.3    c0.6,0,1.1-0.5,1.1-1.1v-1.2h1.9v4.3H22v-4.3H23.9z M22,41.8h32.3v27.9h-7c-0.6,0-1.1,0.5-1.1,1.1v7H22V41.8z"/><path class="st1" d="M74.4,25.5H63.1c-0.6,0-1.1,0.5-1.1,1.1v11.3c0,0.6,0.5,1.1,1.1,1.1h11.3c0.6,0,1.1-0.5,1.1-1.1V26.6    C75.4,26,75,25.5,74.4,25.5z M73.3,36.8h-9.1v-9.1h3.5v2.3c0,0.6,0.5,1.1,1.1,1.1s1.1-0.5,1.1-1.1v-2.3h3.5V36.8z"/></g></g></svg>